<svg width="146px" height="35px" viewBox="0 0 146 35" version="1.1" xmlns="http://www.w3.org/2000/svg" xmlns:xlink="http://www.w3.org/1999/xlink" xmlns:sketch="http://www.bohemiancoding.com/sketch/ns">
    <g id="Page-1" stroke="none" stroke-width="1" fill="none" fill-rule="evenodd" sketch:type="MSPage">
        <g id="blog-post---og-colors-01" sketch:type="MSArtboardGroup" transform="translate(-92.000000, -5552.000000)" fill="#B2B2AF">
            <g id="Imported-Layers" sketch:type="MSLayerGroup" transform="translate(92.123288, 5551.799162)">
                <path d="M45.6390411,23.7659589 C44.3162329,21.3543151 42.0599315,20.3949315 39.4406849,20.3949315 C35.6285616,20.3949315 32.5941096,23.0918493 32.5941096,27.6567123 C32.5941096,32.2982877 35.4468493,34.9175342 39.570137,34.9175342 C42.215274,34.9175342 44.4715753,33.465274 45.7167123,31.2607534 L42.8117123,29.7826027 C42.1634932,31.3389041 41.1782192,31.8058904 39.9335616,31.8058904 C37.7808219,31.8058904 36.7955479,30.0160959 36.7955479,27.6567123 C36.7955479,25.2963699 37.6254795,23.5065753 39.9335616,23.5065753 C40.555411,23.5065753 41.8005479,23.8436301 42.5264384,25.3999315 L45.6390411,23.7659589" id="Fill-1" sketch:type="MSShapeGroup"></path>
                <path d="M53.0532877,23.5065753 C55.3613699,23.5065753 56.3466438,25.2963699 56.3466438,27.500411 C56.3466438,30.0160959 55.3613699,31.8058904 53.0532877,31.8058904 C50.7452055,31.8058904 49.7599315,30.0160959 49.7599315,27.6567123 C49.7599315,25.2963699 50.7452055,23.5065753 53.0532877,23.5065753 L53.0532877,23.5065753 Z M53.0532877,20.3949315 C48.7482877,20.3949315 45.7143151,23.0141781 45.7143151,27.6567123 C45.7143151,32.2982877 48.7482877,34.9175342 53.0532877,34.9175342 C57.3582877,34.9175342 60.3922603,32.2982877 60.3922603,27.6567123 C60.3922603,23.0141781 57.3582877,20.3949315 53.0532877,20.3949315 L53.0532877,20.3949315 Z" id="Fill-2" sketch:type="MSShapeGroup"></path>
                <path d="M61.2212329,34.5541096 L65.2673288,34.5541096 L65.2673288,25.9704795 C65.2673288,24.7258219 65.7856164,23.6623973 67.419589,23.6623973 C68.9758904,23.6623973 69.3906164,24.57 69.3906164,25.9186986 L69.3906164,34.5541096 L73.4362329,34.5541096 L73.4362329,26.0740411 C73.4362329,24.6735616 74.1362329,23.6623973 75.4849315,23.6623973 C77.014863,23.6623973 77.56,24.5441096 77.56,26.4892466 L77.56,34.5541096 L81.6056164,34.5541096 L81.6056164,24.0253425 C81.6056164,20.8614384 78.7010959,20.3949315 77.3523973,20.3949315 C75.7443151,20.3949315 74.240274,20.8873288 72.9174658,22.2360274 C72.009863,21.0172603 70.8428767,20.3949315 69.2611644,20.3949315 C68.0160274,20.3949315 66.304863,20.7578767 65.2673288,21.9766438 L65.2673288,20.7578767 L61.2212329,20.7578767 L61.2212329,34.5541096" id="Fill-3" sketch:type="MSShapeGroup"></path>
                <path d="M82.8991781,34.5541096 L86.9447945,34.5541096 L86.9447945,25.9704795 C86.9447945,24.7258219 87.4635616,23.6623973 89.0970548,23.6623973 C90.6533562,23.6623973 91.0680822,24.57 91.0680822,25.9186986 L91.0680822,34.5541096 L95.1141781,34.5541096 L95.1141781,26.0740411 C95.1141781,24.6735616 95.8141781,23.6623973 97.1623973,23.6623973 C98.6928082,23.6623973 99.2374658,24.5441096 99.2374658,26.4892466 L99.2374658,34.5541096 L103.283082,34.5541096 L103.283082,24.0253425 C103.283082,20.8614384 100.378082,20.3949315 99.029863,20.3949315 C97.4217808,20.3949315 95.9182192,20.8873288 94.595411,22.2360274 C93.6878082,21.0172603 92.5208219,20.3949315 90.9386301,20.3949315 C89.6939726,20.3949315 87.9823288,20.7578767 86.9447945,21.9766438 L86.9447945,20.7578767 L82.8991781,20.7578767 L82.8991781,34.5541096" id="Fill-4" sketch:type="MSShapeGroup"></path>
                <path d="M111.449589,23.5065753 C113.757671,23.5065753 114.742945,25.2963699 114.742945,27.500411 C114.742945,30.0160959 113.757671,31.8058904 111.449589,31.8058904 C109.141507,31.8058904 108.155753,30.0160959 108.155753,27.6567123 C108.155753,25.2963699 109.141507,23.5065753 111.449589,23.5065753 L111.449589,23.5065753 Z M111.449589,20.3949315 C107.144589,20.3949315 104.110616,23.0141781 104.110616,27.6567123 C104.110616,32.2982877 107.144589,34.9175342 111.449589,34.9175342 C115.754589,34.9175342 118.789041,32.2982877 118.789041,27.6567123 C118.789041,23.0141781 115.754589,20.3949315 111.449589,20.3949315 L111.449589,20.3949315 Z" id="Fill-5" sketch:type="MSShapeGroup"></path>
                <path d="M119.876918,34.5541096 L123.922534,34.5541096 L123.922534,25.9704795 C123.922534,24.7258219 124.441301,23.6623973 126.075274,23.6623973 C127.631096,23.6623973 128.045822,24.57 128.045822,25.9186986 L128.045822,34.5541096 L132.091918,34.5541096 L132.091918,24.3628767 C132.091918,22.2878082 131.183836,20.3949315 127.91637,20.3949315 C126.671712,20.3949315 124.960068,20.7578767 123.922534,21.9766438 L123.922534,20.7578767 L119.876918,20.7578767 L119.876918,34.5541096" id="Fill-6" sketch:type="MSShapeGroup"></path>
                <path d="M145.600959,22.3918493 C143.733493,21.1467123 141.633014,20.3949315 139.506644,20.3949315 C136.705205,20.3949315 133.671233,21.7436301 133.671233,25.2186986 C133.671233,30.1196575 141.840137,28.4084932 141.840137,30.5607534 C141.840137,31.8058904 140.310685,31.9612329 139.635616,31.9612329 C137.794521,31.9612329 136.523973,31.2094521 135.278836,30.0160959 L132.763151,32.1942466 C134.786438,34.0617123 136.497603,34.9175342 139.506644,34.9175342 C142.514247,34.9175342 145.730411,33.6206164 145.730411,29.9902055 C145.730411,24.8293836 137.561507,26.7745205 137.561507,24.4141781 C137.561507,23.7141781 138.287397,23.3512329 139.298562,23.3512329 C140.569589,23.3512329 142.307603,23.87 143.110685,24.8293836 L145.600959,22.3918493" id="Fill-7" sketch:type="MSShapeGroup"></path>
                <path d="M45.6390411,7.89369863 C44.3162329,5.48205479 42.0599315,4.52219178 39.4406849,4.52219178 C35.6285616,4.52219178 32.5941096,7.21958904 32.5941096,11.7834932 C32.5941096,16.4255479 35.4468493,19.045274 39.570137,19.045274 C42.215274,19.045274 44.4715753,17.5925342 45.7167123,15.3884932 L42.8117123,13.9103425 C42.1634932,15.4661644 41.1782192,15.9331507 39.9335616,15.9331507 C37.7808219,15.9331507 36.7955479,14.1438356 36.7955479,11.7834932 C36.7955479,9.42363014 37.6254795,7.63431507 39.9335616,7.63431507 C40.555411,7.63431507 41.8005479,7.97136986 42.5264384,9.52767123 L45.6390411,7.89369863" id="Fill-8" sketch:type="MSShapeGroup"></path>
                <path d="M46.6257534,18.6818493 L50.6713699,18.6818493 L50.6713699,10.6946575 C50.6713699,9.16424658 51.6312329,8.74952055 54.0428767,8.46424658 L54.4834932,8.4119863 L54.4576027,4.83335616 C53.0312329,4.93739726 51.5530822,5.45568493 50.6713699,6.28561644 L50.6713699,4.88561644 L46.6257534,4.88561644 L46.6257534,18.6818493" id="Fill-9" sketch:type="MSShapeGroup"></path>
                <path d="M68.2231507,12.6134247 C68.1972603,8.36068493 66.4856164,4.52219178 61.4542466,4.52219178 C57.2532877,4.52219178 54.6858219,7.32315068 54.6858219,12.1986986 C54.6858219,16.0884932 57.1756164,19.045274 61.4542466,19.045274 C64.5404795,19.045274 66.7445205,17.8260274 68.145,15.2331507 L65.1110274,13.6509589 C63.9440411,15.3108219 63.2435616,16.0884932 61.7395205,16.0884932 C60.4430822,16.0884932 58.7573288,15.2585616 58.7314384,12.6134247 L68.2231507,12.6134247 L68.2231507,12.6134247 Z M58.6796575,10.1241096 C58.8608904,8.30842466 60.2613699,7.4789726 61.4283562,7.4789726 C62.5953425,7.4789726 64.0476027,8.10130137 64.1770548,10.1241096 L58.6796575,10.1241096 L58.6796575,10.1241096 Z" id="Fill-10" sketch:type="MSShapeGroup"></path>
                <path d="M77.5034247,12.924589 C77.5034247,15.0250685 76.3105479,16.0884932 74.7283562,16.0884932 C73.7430822,16.0884932 72.8354795,15.6219863 72.8354795,14.5326712 C72.8354795,13.4174658 73.7689726,13.0286301 74.780137,12.7433562 L77.5034247,11.9652055 L77.5034247,12.924589 L77.5034247,12.924589 Z M81.3932192,8.5160274 C81.3673288,5.40390411 79.0074658,4.52219178 75.2471233,4.52219178 C73.3796575,4.52219178 69.6974658,4.88561644 69.5675342,8.85308219 L73.4578082,8.85308219 C73.665411,7.4789726 74.2872603,7.0119863 75.5841781,7.0119863 C76.6734932,7.0119863 77.5034247,7.45260274 77.5034247,8.49013699 L77.5034247,9.63123288 L76.0247945,9.83883562 C71.6162329,10.4611644 68.9452055,11.6281507 68.9452055,14.9473973 C68.9452055,17.5925342 70.9162329,19.045274 73.5613699,19.045274 C75.0136301,19.045274 77.0364384,18.3447945 77.7105479,17.2554795 L77.7623288,17.2554795 C77.7886986,17.7224658 77.8663699,18.2153425 78.0217123,18.6818493 L81.7566438,18.6818493 C81.4191096,17.8260274 81.3932192,16.7630822 81.3932192,15.8032192 L81.3932192,8.5160274 L81.3932192,8.5160274 Z" id="Fill-11" sketch:type="MSShapeGroup"></path>
                <path d="M90.9069863,5.145 L88.494863,5.145 L88.494863,1.15068493 L84.4492466,1.15068493 L84.4492466,5.145 L82.4782192,5.145 L82.4782192,7.63431507 L84.4492466,7.63431507 L84.4492466,14.8956164 C84.4492466,16.8925342 84.9421233,19.045274 88.3913014,19.045274 C89.2730137,19.045274 90.4663699,18.9412329 90.985137,18.8894521 L90.985137,15.6996575 C90.7770548,15.7255479 90.2069863,15.7773288 89.7663699,15.7773288 C89.0395205,15.7773288 88.494863,15.4920548 88.494863,14.4027397 L88.494863,7.63431507 L90.9069863,7.63431507 L90.9069863,5.145" id="Fill-12" sketch:type="MSShapeGroup"></path>
                <path d="M92.4306849,18.6818493 L96.4763014,18.6818493 L96.4763014,4.88513699 L92.4306849,4.88513699 L92.4306849,18.6818493 Z M92.4306849,3.32931507 L96.4763014,3.32931507 L96.4763014,0.217191781 L92.4306849,0.217191781 L92.4306849,3.32931507 Z" id="Fill-13" sketch:type="MSShapeGroup"></path>
                <path d="M101.920959,18.6818493 L105.991986,18.6818493 L110.712671,4.88561644 L106.407671,4.88561644 L104.021438,14.6362329 L103.970137,14.6362329 L101.583425,4.88561644 L97.2530137,4.88561644 L101.920959,18.6818493" id="Fill-14" sketch:type="MSShapeGroup"></path>
                <path d="M123.77726,12.6134247 C123.75137,8.36068493 122.039726,4.52219178 117.008836,4.52219178 C112.806918,4.52219178 110.240411,7.32315068 110.240411,12.1986986 C110.240411,16.0884932 112.729247,19.045274 117.008836,19.045274 C120.094589,19.045274 122.29911,17.8260274 123.699589,15.2331507 L120.665137,13.6509589 C119.498151,15.3108219 118.797671,16.0884932 117.29411,16.0884932 C115.997192,16.0884932 114.311438,15.2585616 114.285548,12.6134247 L123.77726,12.6134247 L123.77726,12.6134247 Z M114.233767,10.1241096 C114.415479,8.30842466 115.815479,7.4789726 116.982466,7.4789726 C118.149932,7.4789726 119.602192,8.10130137 119.732123,10.1241096 L114.233767,10.1241096 L114.233767,10.1241096 Z" id="Fill-15" sketch:type="MSShapeGroup"></path>
                <path d="M15.5869863,4.29013699 C11.4243836,4.29013699 7.76136986,5.83061644 4.93068493,8.70253425 C2.01705479,11.6583562 0.435342466,15.4877397 0.435342466,19.4839726 C0.435342466,23.5219178 1.97534247,27.2678767 4.8889726,30.1819863 C7.80260274,33.0956164 11.5907534,34.6773288 15.5869863,34.6773288 C19.5832192,34.6773288 23.4543151,33.0956164 26.4513699,30.140274 C29.2820548,27.3513014 30.7803425,23.6465753 30.7803425,19.4839726 C30.7803425,15.3630822 29.2820548,11.6166438 26.4096575,8.74424658 C23.4960274,5.83061644 19.749589,4.29013699 15.5869863,4.29013699 L15.5869863,4.29013699 Z M15.6286986,7.03787671 C19.0419178,7.03787671 22.0806849,8.32808219 24.4534932,10.7008904 C26.7841096,13.0319863 28.0330822,16.1124658 28.0330822,19.4839726 C28.0330822,22.8971918 26.8258219,25.8942466 24.494726,28.1841096 C22.0389726,30.5981507 18.8755479,31.8888356 15.6286986,31.8888356 C12.340137,31.8888356 9.25965753,30.5981507 6.88684932,28.2258219 C4.51452055,25.8525342 3.18212329,22.7308219 3.18212329,19.4839726 C3.18212329,16.195411 4.51452055,13.0736986 6.88684932,10.6591781 C9.21794521,8.28684932 12.2154795,7.03787671 15.6286986,7.03787671 L15.6286986,7.03787671 Z" id="Fill-16" sketch:type="MSShapeGroup"></path>
                <path d="M15.4326027,16.9596575 C14.5743836,15.3942466 13.110137,14.7719178 11.4104795,14.7719178 C8.93650685,14.7719178 6.96739726,16.5219178 6.96739726,19.4839726 C6.96739726,22.4963699 8.81856164,24.1965068 11.494863,24.1965068 C13.2113014,24.1965068 14.6755479,23.2539041 15.4834247,21.8236986 L13.5982192,20.8643151 C13.1772603,21.8740411 12.5381507,22.1765753 11.730274,22.1765753 C10.3331507,22.1765753 9.6940411,21.0158219 9.6940411,19.4839726 C9.6940411,17.9526027 10.2324658,16.7913699 11.730274,16.7913699 C12.1339726,16.7913699 12.9418493,17.01 13.4131507,18.019726 L15.4326027,16.9596575" id="Fill-17" sketch:type="MSShapeGroup"></path>
                <path d="M24.1974658,16.9596575 C23.3392466,15.3942466 21.875,14.7719178 20.1753425,14.7719178 C17.7013699,14.7719178 15.7322603,16.5219178 15.7322603,19.4839726 C15.7322603,22.4963699 17.5834247,24.1965068 20.2592466,24.1965068 C21.9761644,24.1965068 23.440411,23.2539041 24.2482877,21.8236986 L22.3630822,20.8643151 C21.9426027,21.8740411 21.3030137,22.1765753 20.495137,22.1765753 C19.0984932,22.1765753 18.4584247,21.0158219 18.4584247,19.4839726 C18.4584247,17.9526027 18.9973288,16.7913699 20.495137,16.7913699 C20.8988356,16.7913699 21.7067123,17.01 22.1780137,18.019726 L24.1974658,16.9596575" id="Fill-18" sketch:type="MSShapeGroup"></path>
            </g>
        </g>
    </g>
</svg>