<?xml version="1.0" encoding="utf-8"?>
<!-- Generator: Adobe Illustrator 16.0.0, SVG Export Plug-In . SVG Version: 6.00 Build 0)  -->
<!DOCTYPE svg PUBLIC "-//W3C//DTD SVG 1.1//EN" "http://www.w3.org/Graphics/SVG/1.1/DTD/svg11.dtd">
<svg version="1.1" id="Layer_1" xmlns="http://www.w3.org/2000/svg" xmlns:xlink="http://www.w3.org/1999/xlink" x="0px" y="0px"
	 width="2346px" height="426.1px" viewBox="0.1 0 2346 426.1" enable-background="new 0.1 0 2346 426.1" xml:space="preserve">
<g id="Page-1_1_">
	<g id="cloudscaling_logo">
		<g id="Page-1">
			<g id="cloudscaling-logo-blog-lockup">
				<g id="Cloudscaling_x5F_logo-_x2B_-Sponsored-by-EMC">
					<g id="Cloudscaling_logo">
						<path id="Shape_1_" fill="#242021" d="M226.6,0h57.8c0.1,111.2,0,222.4,0.1,333.6c-19.4,0.101-38.7,0-58.1,0V3.9
							C226.3,2.7,226.4,1.3,226.6,0L226.6,0L226.6,0z"/>
						<path id="Shape_3_" fill="#B3272D" d="M1733.6,0h34.601v332.8c-11.601,0.101-23.3,0-34.9,0V30C1733.4,20,1732.9,10,1733.6,0
							L1733.6,0L1733.6,0z"/>
						<path id="Shape_4_" fill="#B3272D" d="M1821.4,11c9.899-0.3,19.699-0.1,29.6-0.1c3.1,0.1,6.2-0.4,9.3,0.5
							c-0.2,12.6,0,25.3-0.1,37.9c-12.9,0.1-25.9,0-38.8,0.1V11L1821.4,11L1821.4,11z"/>
						<path id="Shape_6_" fill="#242021" d="M110,88.5c25.2-0.7,50.3,4.2,73.7,13.4c0.1,16.2,0,32.4,0,48.7
							c-24.7-10.2-51.9-13.7-78.4-10.6c-12.3,1.6-25,6.4-32.9,16.4c-10.1,12.5-12.8,29.1-13.9,44.7c-0.6,21.2-0.8,43.8,9.7,62.9
							c6.8,12.5,20.3,19.9,34,22.1c27.5,4.301,55.9,0,81.5-10.5c0,16.2,0.1,32.4,0,48.601c-31.3,12.3-66,16.899-99.2,10.7
							c-23.1-4.2-45.2-16-59.6-34.801C7.3,277.6,1,248.5,0.1,220.5v-16.9c0.4-5.6,0.8-11.2,1.5-16.8c3.3-26.4,13.2-53.1,33-71.4
							C54.7,96.6,82.9,88.9,110,88.5L110,88.5L110,88.5z"/>
						<path id="Shape_7_" fill="#B3272D" d="M1148,91.2c31-7.4,64.3-2.8,92.7,11.6c-0.2,11.6,0.1,23.3-0.2,34.9
							c-18.4-11.2-40-17.2-61.5-16.4c-13.3,0.4-27.4,2.4-38.4,10.4c-8.199,6-12.699,16.2-12.199,26.3c-0.4,7.5,4.3,14.3,10.3,18.4
							c8.5,5.9,18.6,8.9,28.3,11.9c18.9,5.6,38.5,10.2,55.8,20c10.601,6,20.101,14.3,26.101,24.9c4.6,7.899,7.1,16.8,8.1,25.8
							c1.6,13.4,0.3,27.5-5.9,39.8c-6.6,13.3-18.699,23.2-32.199,29c-18.5,8-39,9.7-58.9,8.8c-22.2-1.1-44.2-7.199-63.6-18
							c0-12.3-0.101-24.5,0-36.8c19,11.4,40.399,19.2,62.6,20.8c14.6,0.601,29.7,0.4,43.5-5.1c8.2-3.2,15.9-9.3,18.7-18
							c2.8-9.1,1.7-19.4-2.9-27.7c-5.2-9.2-14.6-14.899-24.1-18.899c-20.101-8.4-41.8-11.801-61.8-20.3
							c-11.2-4.8-22.2-11.4-29.301-21.5c-6.899-9.5-9.8-21.4-9.6-33.1c-0.2-16.9,5.8-34,17.5-46.3
							C1120.8,101.2,1134.2,94.6,1148,91.2L1148,91.2L1148,91.2z"/>
						<path id="Shape_8_" fill="#B3272D" d="M1372.9,89c31-3.9,62.6,1.2,91.8,12.1c0.3,5.7,0,11.3,0.2,17
							c-0.301,5.6,0.199,11.2-0.301,16.7c-23.8-10.1-49.899-14.6-75.6-13.3c-17.6,0.8-36.1,5-49.5,17c-10.5,9.1-16.7,22.2-20,35.6
							c-4.1,17-4.5,34.6-3.6,52c1.3,19.301,5.3,39.7,18.1,54.801c10.7,12.8,27.2,19.1,43.4,21.3c29.5,3.7,60-0.601,87.399-12.101
							c0,11.4,0.3,22.801-0.2,34.101c-22.3,8-45.899,12.8-69.6,12.7c-21.4,0.3-43.4-3.2-62.4-13.4
							c-15.5-8.2-28.199-21.2-36.399-36.6c-10.8-20.101-14.7-43.2-15.601-65.801c-0.699-24,1.301-48.6,10.101-71.1
							c6.5-17.1,17.899-32.6,33-43.1C1338.2,96.6,1355.5,91.1,1372.9,89L1372.9,89L1372.9,89z"/>
						<path id="Shape_9_" fill="#B3272D" d="M1971.1,91.8c24.601-4.4,50.2-6.3,74.801-0.6c17.199,4.1,33.8,12.8,45,26.8
							c12.899,15.6,18,36.2,18.3,56.1v158.8c-11.601,0.1-23.3,0-34.9,0V173.1c-0.399-10.4-2.399-21.1-8.6-29.6
							c-7.101-10.2-19-15.8-30.8-18.3c-20.2-4.3-41.101-2.5-61.301,0.8c-9.1,1.8-18.199,3.6-27,6.6c0.101,66.8,0,133.6,0,200.4
							H1911.7c-0.101-73.8,0.1-147.5-0.101-221.3C1930.4,102.1,1950.6,95.9,1971.1,91.8L1971.1,91.8L1971.1,91.8z"/>
						<path id="Shape_12_" fill="#242021" d="M584.4,92.3H642.8V232c0.5,13.3,1.4,27.6,9.5,38.9c6.601,9.399,18,13.8,29,15.1
							c12.3,1.3,25,1.1,36.8-3c9-3.1,16.601-9.9,20.301-18.7c6.699-14.8,5.199-31.5,5.399-47.3V92.4c19.601-0.2,39.2-0.1,58.7-0.1
							c0,45.4,0.1,90.8,0,136.2c-0.5,21.6-5,43.7-16.2,62.5c-9,15.3-22.7,27.7-38.7,35.3c-20.6,9.9-44,12.4-66.6,10.8
							c-18.8-1.399-37.7-6.8-53.5-17.399c-14-9.4-25-22.9-32-38.2c-8-17.6-11.1-37.2-11.1-56.4C584.4,180.8,584.3,136.6,584.4,92.3
							L584.4,92.3L584.4,92.3z"/>
						<path id="Shape_13_" fill="#B3272D" d="M1823.3,92.2c4.2-0.7,8.5,0,12.8-0.1c7.4-0.2,14.801,0,22.2,0v240.6
							c-11.6,0.1-23.3,0-34.899,0.1C1823.2,252.6,1823.3,172.4,1823.3,92.2L1823.3,92.2L1823.3,92.2z"/>
						<path id="Shape" fill="#B3272D" d="M2326.1,112c-12.3-12.2-29.199-18.7-46-21.8c-18.199-3-37-3.7-55.199,0.2
							c-16.5,3.5-32.4,11.2-44.5,23.1c-11.801,11.4-19.801,26.2-24.7,41.8c-7.101,22.4-8.3,46.3-7.2,69.7c1.2,19.1,5,38.4,13.9,55.5
							c6.8,13.2,17,24.6,29.699,32.5c18.601,11.8,41.101,15.9,62.9,15.7c19.1,0.2,38.1-3,56.3-8.5c-0.2,10,0.3,19.899-0.3,29.899
							c-0.6,9.301-3.6,18.9-10.3,25.601c-7.7,8.2-18.8,12.1-29.5,14.5c-18.7,3.7-38,3.6-56.9,1.899c-14-1.3-27.899-3.899-41.5-7.6
							c-0.1,11,0,21.9,0,32.9c19.8,5.1,40.2,8,60.601,8.699h17.3c16.5-0.8,33.2-3.199,48.6-9.399c12.2-4.9,23.4-12.5,31.5-23
							c9.8-12.5,14.3-28.4,15.3-44.101V157.5C2345,140.6,2338.3,123.8,2326.1,112L2326.1,112z M2311.3,164v121.1
							c-24.8,9.9-52.399,13.801-78.8,9.2c-14.6-2.6-28.4-10.8-36.2-23.5c-10.5-16.899-12.899-37.3-13-56.8
							c-0.3-21.8,1.5-44.4,11.601-64.1c6.5-13,18.3-23.2,32.3-27.1c11-3,22.6-3.7,33.899-2.5c9.301,0.3,18.7,2.1,27.301,5.6
							c7.899,3.3,15.3,8.9,19,16.7C2310.8,149.1,2311.4,156.7,2311.3,164L2311.3,164z"/>
						<path id="Shape_2_" fill="#242021" d="M1049.3,239V0h-58.1v91.9c-12.7-1.6-25.4-3.6-38.2-3.5c-21.5-0.3-43.6,3.3-62.6,13.8
							c-15.101,8.3-27.5,21.2-35.601,36.5c-9.899,18.5-14.1,39.5-15.2,60.3c-1,23.9,0.801,48.2,8.601,70.9
							c6.1,17.6,16.5,34,31.2,45.699c16.3,13.101,36.899,19.9,57.5,21.5c14.899,1,29.899,0.101,44.5-3c16.6-3.6,32.8-10.8,45.1-22.6
							c11.6-11,19.1-25.9,21.6-41.6C1049.9,259.7,1049.1,249.3,1049.3,239L1049.3,239z M991.2,262.1c-0.101,7.5-3.5,15.2-10.2,18.9
							c-10.2,6-22.4,6.5-33.9,6.6c-12,0.2-24.899-3.1-33.3-12.3c-10.1-10.899-13.1-26.2-14.899-40.5
							c-1.801-19.5-2.4-39.4,1.699-58.7c2.801-13.1,9-26.5,20.7-33.8c12.601-8.2,28.3-8.3,42.8-7.6c9.101,0.8,18.4,1.3,27.301,3.9
							C991.2,179.7,991.2,220.9,991.2,262.1L991.2,262.1z"/>
						<path id="Shape_5_" fill="#242021" d="M544.6,169.9c-4.5-19-13.199-37.4-27.1-51.4c-13.3-13.5-30.9-22.2-49.3-26.2
							c-17.5-3.8-35.7-4.2-53.5-2.2c-19.7,2.4-39.2,9.2-54.7,21.8c-18.6,14.8-29.9,37.2-34.9,60.1c-3.3,13.7-3.8,27.9-4.4,41.9
							c0.7,14,1.3,28.2,4.8,41.9c5.2,23,17,45.2,35.9,59.7c19.9,15.5,45.7,21.6,70.6,21.8c20.5,0.4,41.5-2.6,60.2-11.6
							c16.1-7.7,29.8-20.3,39-35.7c9.7-16.1,14.7-34.6,16.8-53.1C550.4,214.7,549.7,191.9,544.6,169.9L544.6,169.9z M488.1,248
							c-2.5,12.6-7.899,25.7-18.8,33.3c-11.399,7.8-25.899,8.601-39.3,8.2c-13.1-0.4-27.3-4-36-14.5c-10.4-12.5-13-29.3-14.3-45
							c-0.8-19.3-1.2-39,4-57.9c2.7-9.6,7.3-19,15.2-25.4c5.899-4.9,13.399-7.5,20.899-8.8c7.7-1,15.5-1.7,23.2-0.8
							c12.3,0.5,25.3,4.6,33.4,14.3c9.5,11.4,12.3,26.6,13.899,40.9C491.7,211,491.7,229.7,488.1,248L488.1,248z"/>
						<path id="Shape_10_" fill="#B3272D" d="M1686.3,241v-56.1c-0.5-18.1-3.6-36.6-12.3-52.7c-7.6-14.2-19.8-25.9-34.3-32.9
							c-16.601-8.3-35.3-11.1-53.7-11.6c-25.7-0.4-51.5,4-75.8,12.5c-0.101,11.3-0.101,22.6,0,33.8c28.5-9.3,59-13.5,88.899-10.3
							c11,1.4,22.2,4.3,31.4,10.8c15.4,10.4,20.8,30.2,20.2,47.8c-22.4-2.9-45.2-3.3-67.8-1.3c-23.101,2.3-46.801,7.4-66.5,20.4
							c-14.2,9.2-25,23.9-28.301,40.6c-3.6,17.5-2,36.5,6.301,52.5c7.5,14.4,20.8,25,35.5,31.3
							c22.199,9.601,46.899,12.101,70.899,10.4c19.8-1.8,39.9-6.601,56.5-17.9c12.7-8.5,22.3-21.5,26.101-36.3
							C1687.4,268.7,1686.1,254.7,1686.3,241L1686.3,241z M1651.4,261c-0.101,8.9-2.4,18.2-8.301,25.1
							c-6.3,7.801-15.8,12.4-25.3,14.801c-13.3,3.399-27.2,4-40.8,3.1c-15.7-1.1-32.6-4.3-44.5-15.5c-7.9-7.6-11.5-18.7-11.2-29.5
							c-0.3-10.9,4.3-21.9,12.601-29c11.1-9.8,25.899-13.8,40.199-16.2c16.801-2.6,33.9-2.6,50.801-2c8.899,0.7,17.8,1,26.5,2.7
							C1651.3,230,1651.4,245.5,1651.4,261L1651.4,261z"/>
					</g>
				</g>
			</g>
		</g>
	</g>
</g>
</svg>
