<svg version="1.1" id="Layer_1" xmlns:sketch="http://www.bohemiancoding.com/sketch/ns"
	 xmlns="http://www.w3.org/2000/svg" xmlns:xlink="http://www.w3.org/1999/xlink" x="0px" y="0px" width="2346px"
	 height="516.394px" viewBox="267 391 2346 516.394" enable-background="new 267 391 2346 516.394" xml:space="preserve">
<g id="Page-1" sketch:type="MSPage">
	<g id="cloudscaling-logo-blog-lockup" sketch:type="MSArtboardGroup">
		<g id="Cloudscaling_x5F_logo-_x2B_-Sponsored-by-EMC" transform="translate(267.000000, 391.000000)" sketch:type="MSLayerGroup">
			<g id="Cloudscaling_logo" sketch:type="MSShapeGroup">
				<path id="Shape" fill="#FEFDFD" d="M0,0h226.57c-0.15,1.33-0.24,2.66-0.271,3.99c0.01,109.899-0.01,219.8,0.01,329.689
					c19.36-0.029,38.721,0.03,58.08-0.029C284.34,222.43,284.47,111.22,284.33,0H991.2c0.01,30.64-0.011,61.27,0.01,91.91
					c-12.7-1.561-25.399-3.58-38.229-3.46c-21.511-0.29-43.61,3.29-62.591,13.85c-15.14,8.3-27.54,21.24-35.64,36.45
					c-9.91,18.47-14.05,39.49-15.16,60.27c-0.96,23.87,0.771,48.221,8.641,70.931c6.109,17.6,16.46,34.05,31.18,45.68
					c16.26,13.101,36.89,19.9,57.54,21.53c14.86,0.95,29.89,0.12,44.46-3.021c16.58-3.6,32.77-10.77,45.1-22.64
					c11.551-10.98,19.141-25.9,21.641-41.61c1.8-10.22,0.979-20.62,1.16-30.93V0h684.239c-0.649,9.99-0.1,20.02-0.28,30.02
					c0.011,100.95-0.01,201.9,0.011,302.851c11.64-0.03,23.28,0.04,34.92-0.05c0-110.94,0.03-221.88-0.011-332.82H2346v157.41
					c-0.97-16.851-7.7-33.641-19.93-45.46c-12.33-12.22-29.15-18.73-45.96-21.79c-18.21-3.03-37.021-3.68-55.16,0.16
					c-16.54,3.5-32.41,11.18-44.49,23.14c-11.79,11.39-19.79,26.21-24.68,41.75c-7.08,22.45-8.29,46.29-7.24,69.67
					c1.2,19.11,4.97,38.43,13.93,55.521c6.841,13.149,17.03,24.619,29.65,32.46c18.63,11.77,41.13,15.88,62.89,15.729
					c19.07,0.21,38.051-3,56.28-8.46c-0.17,9.96,0.34,19.93-0.34,29.87c-0.55,9.31-3.59,18.87-10.29,25.59
					c-7.74,8.2-18.771,12.13-29.521,14.521c-18.71,3.689-37.97,3.62-56.899,1.909c-14.03-1.3-27.93-3.88-41.51-7.6
					c-0.061,10.97-0.011,21.93-0.021,32.9c19.79,5.12,40.16,8.029,60.59,8.68H0V220.55c0.93,27.98,7.22,57.101,24.81,79.561
					c14.459,18.76,36.56,30.51,59.63,34.76c33.199,6.13,67.88,1.53,99.189-10.73c0.13-16.21,0.03-32.43,0.05-48.64
					c-25.62,10.53-54.069,14.77-81.529,10.48c-13.73-2.181-27.21-9.54-33.99-22.08c-10.58-19.08-10.34-41.73-9.74-62.91
					c1.11-15.59,3.79-32.19,13.93-44.681c7.96-9.979,20.601-14.76,32.931-16.38c26.45-3.13,53.729,0.41,78.38,10.561
					c0.03-16.221,0.08-32.44-0.021-48.65c-23.39-9.14-48.52-14.05-73.67-13.359c-27.09,0.39-55.279,8.109-75.43,27.01
					C14.68,133.86,4.79,160.56,1.51,186.91C0.75,192.48,0.38,198.09,0,203.7V0L0,0z"/>
				<path id="Shape_1_" fill="#242021" d="M226.57,0h57.76c0.14,111.22,0.01,222.43,0.06,333.65c-19.359,0.06-38.72,0-58.08,0.029
					c-0.02-109.89,0-219.79-0.01-329.689C226.33,2.66,226.42,1.33,226.57,0L226.57,0z"/>
				<path id="Shape_2_" fill="#242021" d="M991.2,0h58.11v238.96c-0.181,10.31,0.64,20.71-1.16,30.93
					c-2.5,15.71-10.09,30.63-21.641,41.61c-12.33,11.87-28.52,19.04-45.1,22.64c-14.57,3.141-29.6,3.971-44.46,3.021
					c-20.65-1.63-41.28-8.43-57.54-21.53c-14.72-11.63-25.07-28.08-31.18-45.68c-7.87-22.71-9.601-47.061-8.641-70.931
					c1.11-20.779,5.25-41.8,15.16-60.27c8.1-15.21,20.5-28.15,35.64-36.45c18.98-10.56,41.08-14.14,62.591-13.85
					c12.83-0.12,25.529,1.899,38.229,3.46C991.189,61.27,991.21,30.64,991.2,0L991.2,0z"/>
				<path id="Shape_3_" fill="#B3272D" d="M1733.55,0h34.64c0.041,110.94,0.011,221.88,0.011,332.82
					c-11.64,0.09-23.28,0.02-34.92,0.05c-0.021-100.95,0-201.9-0.011-302.851C1733.45,20.02,1732.9,9.99,1733.55,0L1733.55,0z"/>
				<path id="Shape_4_" fill="#B3272D" d="M1821.41,11.03c9.859-0.32,19.74-0.061,29.62-0.141c3.08,0.07,6.239-0.35,9.28,0.521
					c-0.211,12.64-0.03,25.27-0.091,37.899c-12.93,0.11-25.859,0.011-38.78,0.061C1821.37,36.59,1821.42,23.81,1821.41,11.03
					L1821.41,11.03z"/>
				<path id="Shape_5_" fill="#B3272D" d="M1510.22,100.17c24.29-8.52,50.061-12.85,75.8-12.49
					c18.351,0.551,37.08,3.301,53.66,11.61c14.49,7.05,26.721,18.7,34.32,32.93c8.72,16.101,11.811,34.601,12.27,52.73
					c0.07,18.689,0.011,37.38,0.03,56.069c-0.22,13.7,1.061,27.721-2.78,41.07c-3.83,14.811-13.47,27.84-26.13,36.33
					c-16.609,11.271-36.71,16.11-56.47,17.87c-23.96,1.7-48.68-0.78-70.88-10.41c-14.7-6.37-28.05-16.939-35.54-31.33
					c-8.37-15.97-9.9-35.01-6.33-52.52c3.36-16.71,14.16-31.37,28.34-40.61c19.69-12.95,43.351-18.07,66.49-20.36
					c22.53-2.02,45.32-1.67,67.76,1.261c0.51-17.69-4.84-37.45-20.24-47.84c-9.22-6.48-20.399-9.37-31.43-10.811
					c-29.91-3.17-60.37,1.05-88.89,10.33C1510.16,122.73,1510.11,111.45,1510.22,100.17L1510.22,100.17z"/>
				<path id="Shape_6_" fill="#242021" d="M109.97,88.48c25.15-0.69,50.28,4.22,73.67,13.359c0.101,16.21,0.051,32.43,0.021,48.65
					c-24.65-10.15-51.93-13.69-78.38-10.561c-12.33,1.62-24.971,6.4-32.931,16.38C62.21,168.8,59.53,185.4,58.42,200.99
					c-0.6,21.18-0.84,43.83,9.74,62.91c6.78,12.54,20.26,19.899,33.99,22.08c27.46,4.289,55.909,0.05,81.529-10.48
					c-0.02,16.21,0.08,32.43-0.05,48.64C152.32,336.4,117.64,341,84.44,334.87c-23.07-4.25-45.171-16-59.63-34.76
					C7.22,277.65,0.93,248.53,0,220.55V203.7c0.38-5.61,0.75-11.22,1.51-16.79c3.28-26.351,13.17-53.05,33.03-71.42
					C54.69,96.59,82.88,88.87,109.97,88.48L109.97,88.48z"/>
				<path id="Shape_7_" fill="#B3272D" d="M1148.02,91.17c30.98-7.45,64.341-2.76,92.66,11.61c-0.18,11.63,0.141,23.27-0.17,34.899
					c-18.37-11.189-39.979-17.239-61.52-16.41c-13.311,0.351-27.391,2.41-38.44,10.381c-8.25,5.96-12.71,16.239-12.229,26.33
					c-0.36,7.51,4.29,14.26,10.26,18.399c8.52,5.87,18.56,8.88,28.34,11.91c18.94,5.59,38.47,10.22,55.79,20.03
					c10.56,5.97,20.07,14.279,26.101,24.92c4.59,7.87,7.06,16.79,8.149,25.779c1.56,13.431,0.26,27.54-5.88,39.75
					c-6.58,13.341-18.69,23.25-32.2,29.04c-18.479,8.021-39.01,9.671-58.93,8.771c-22.2-1.061-44.19-7.16-63.59-18.04
					c0.02-12.26-0.07-24.53,0.04-36.79c19,11.39,40.41,19.18,62.59,20.81c14.6,0.57,29.689,0.351,43.47-5.1
					c8.24-3.19,15.89-9.33,18.67-17.979c2.82-9.101,1.72-19.4-2.88-27.74c-5.22-9.15-14.61-14.91-24.05-18.931
					c-20.07-8.39-41.82-11.76-61.84-20.279c-11.2-4.79-22.16-11.38-29.33-21.471c-6.92-9.489-9.761-21.439-9.62-33.06
					c-0.25-16.87,5.779-34.04,17.529-46.29C1120.77,101.18,1134.16,94.58,1148.02,91.17L1148.02,91.17z"/>
				<path id="Shape_8_" fill="#B3272D" d="M1372.91,88.96c30.99-3.87,62.63,1.25,91.779,12.06c0.311,5.66-0.039,11.32,0.23,16.98
					c-0.31,5.58,0.16,11.17-0.3,16.74c-23.771-10.05-49.86-14.561-75.64-13.34c-17.58,0.84-36.08,5.01-49.551,17.02
					c-10.51,9.14-16.74,22.21-19.99,35.561c-4.109,16.979-4.51,34.63-3.609,52.01c1.29,19.279,5.27,39.66,18.12,54.8
					c10.739,12.79,27.2,19.14,43.399,21.31c29.53,3.71,60-0.6,87.431-12.119c0.01,11.369,0.28,22.76-0.16,34.119
					c-22.3,8.051-45.89,12.771-69.64,12.67c-21.42,0.32-43.381-3.17-62.42-13.38c-15.461-8.17-28.181-21.21-36.351-36.63
					c-10.78-20.14-14.71-43.18-15.57-65.79c-0.68-24,1.311-48.59,10.12-71.14c6.521-17.13,17.87-32.58,32.98-43.09
					C1338.18,96.56,1355.5,91.14,1372.91,88.96L1372.91,88.96z"/>
				<path id="Shape_9_" fill="#B3272D" d="M1971.12,91.8c24.62-4.399,50.229-6.3,74.8-0.55c17.22,4.08,33.76,12.84,45.02,26.75
					c12.931,15.56,18,36.18,18.341,56.07c0,52.92-0.011,105.84,0,158.76c-11.641,0.07-23.29,0.02-34.931,0.02
					c-0.039-53.26,0.04-106.529-0.039-159.8c-0.391-10.35-2.431-21.09-8.641-29.64c-7.1-10.15-18.98-15.79-30.811-18.32
					c-20.199-4.27-41.09-2.5-61.289,0.811c-9.08,1.779-18.21,3.56-26.971,6.6c0.131,66.78,0.04,133.57,0.051,200.36
					c-11.631-0.011-23.25,0.029-34.881-0.021c-0.069-73.76,0.11-147.53-0.08-221.3C1930.37,102.07,1950.63,95.93,1971.12,91.8
					L1971.12,91.8z"/>
				<path id="Shape_10_" fill="#B3272D" d="M2224.95,90.32c18.14-3.84,36.95-3.19,55.16-0.16c16.81,3.06,33.63,9.57,45.96,21.79
					c12.229,11.819,18.96,28.609,19.93,45.46V349.52c-0.98,15.681-5.5,31.58-15.311,44.091c-8.039,10.46-19.319,18.069-31.47,22.979
					c-15.42,6.25-32.109,8.58-48.63,9.41h-17.29c-20.43-0.65-40.8-3.56-60.59-8.68c0.01-10.971-0.04-21.931,0.021-32.9
					c13.58,3.72,27.479,6.3,41.51,7.6c18.93,1.711,38.189,1.78,56.899-1.909c10.75-2.391,21.78-6.32,29.521-14.521
					c6.7-6.72,9.74-16.28,10.29-25.59c0.68-9.94,0.17-19.91,0.34-29.87c-18.229,5.46-37.21,8.67-56.28,8.46
					c-21.76,0.15-44.26-3.96-62.89-15.729c-12.62-7.841-22.81-19.311-29.65-32.46c-8.96-17.091-12.729-36.41-13.93-55.521
					c-1.05-23.38,0.16-47.22,7.24-69.67c4.89-15.54,12.89-30.36,24.68-41.75C2192.54,101.5,2208.41,93.82,2224.95,90.32
					L2224.95,90.32z"/>
				<path id="Shape_11_" fill="#242021" d="M414.66,90.13c17.78-2.06,35.979-1.68,53.5,2.17c18.399,4.021,36.03,12.7,49.31,26.21
					c13.88,13.971,22.59,32.37,27.08,51.391c5.13,21.97,5.82,44.83,3.391,67.21c-2.131,18.529-7.11,37.029-16.79,53.109
					c-9.11,15.36-22.811,27.98-38.95,35.67c-18.63,9.021-39.63,12.011-60.17,11.61c-24.891-0.22-50.641-6.32-70.58-21.84
					c-18.94-14.54-30.74-36.72-35.94-59.73c-3.529-13.71-4.06-27.89-4.79-41.939c0.601-14.04,1.15-28.181,4.431-41.91
					c4.979-22.95,16.25-45.3,34.859-60.13C375.47,99.32,395,92.5,414.66,90.13L414.66,90.13z"/>
				<path id="Shape_12_" fill="#242021" d="M584.36,92.32c19.479,0.01,38.949,0,58.43,0.01c0,46.55,0.01,93.11-0.01,139.67
					c0.5,13.33,1.399,27.65,9.46,38.88c6.6,9.351,17.96,13.79,28.979,15.08c12.261,1.3,25.021,1.12,36.78-2.979
					c8.97-3.131,16.55-9.94,20.33-18.681c6.71-14.84,5.24-31.49,5.41-47.319c-0.01-41.53,0.029-83.051-0.01-124.57
					c19.579-0.18,39.159-0.05,58.739-0.07c-0.029,45.41,0.05,90.83-0.029,136.25c-0.511,21.641-5.011,43.71-16.221,62.46
					c-9.02,15.26-22.67,27.71-38.7,35.28c-20.6,9.92-44.039,12.38-66.619,10.76c-18.851-1.42-37.71-6.77-53.46-17.439
					c-14.011-9.37-25.051-22.9-31.96-38.23c-8.04-17.62-11.141-37.16-11.131-56.42C584.36,180.77,584.34,136.55,584.36,92.32
					L584.36,92.32z"/>
				<path id="Shape_13_" fill="#B3272D" d="M1823.26,92.23c4.23-0.65,8.49,0.02,12.75-0.051c7.38-0.189,14.771,0,22.17,0.04
					c0.021,80.2,0.01,160.391,0,240.58c-11.64,0.141-23.279,0.03-34.91,0.061C1823.24,252.65,1823.26,172.44,1823.26,92.23
					L1823.26,92.23z"/>
				<path id="Shape_14_" fill="#FEFDFD" d="M2227.14,122.7c10.971-2.99,22.561-3.7,33.86-2.48c9.33,0.32,18.67,2.05,27.34,5.57
					c7.93,3.26,15.26,8.88,19.04,16.74c3.4,6.58,3.98,14.17,3.91,21.46c-0.03,40.359,0.03,80.729-0.021,121.1
					c-24.84,9.891-52.38,13.76-78.819,9.15c-14.58-2.561-28.38-10.771-36.22-23.521c-10.471-16.859-12.94-37.29-13.011-56.75
					c-0.26-21.77,1.54-44.43,11.591-64.12C2201.33,136.9,2213.1,126.63,2227.14,122.7L2227.14,122.7z"/>
				<path id="Shape_15_" fill="#FEFDFD" d="M921.21,142.31c12.59-8.18,28.271-8.279,42.75-7.609c9.13,0.8,18.41,1.319,27.26,3.87
					c-0.06,41.16,0.03,82.33-0.04,123.5c-0.069,7.479-3.52,15.18-10.22,18.939c-10.17,5.98-22.42,6.48-33.92,6.58
					c-12.04,0.18-24.94-3.08-33.29-12.28c-10.05-10.939-13.1-26.189-14.94-40.46c-1.79-19.51-2.42-39.439,1.66-58.72
					C903.28,163.03,909.5,149.67,921.21,142.31L921.21,142.31z"/>
				<path id="Shape_16_" fill="#FEFDFD" d="M419.73,138.01c7.68-1.01,15.479-1.7,23.21-0.77c12.31,0.479,25.29,4.56,33.38,14.34
					c9.479,11.4,12.27,26.57,13.91,40.89c1.5,18.48,1.449,37.25-2.141,55.5c-2.52,12.641-7.899,25.65-18.79,33.3
					c-11.43,7.841-25.91,8.62-39.319,8.19c-13.11-0.37-27.28-3.97-35.99-14.49c-10.391-12.5-12.96-29.29-14.351-44.97
					c-0.77-19.32-1.149-39.05,4.011-57.86c2.67-9.56,7.279-19.02,15.149-25.35C404.75,141.9,412.2,139.24,419.73,138.01
					L419.73,138.01z"/>
				<path id="Shape_17_" fill="#FEFDFD" d="M1574.09,213.75c16.8-2.64,33.87-2.6,50.83-2.04c8.86,0.69,17.79,0.99,26.53,2.73
					c-0.11,15.51-0.011,31.02-0.05,46.529c-0.131,8.92-2.431,18.16-8.261,25.12c-6.34,7.78-15.75,12.37-25.3,14.811
					c-13.31,3.359-27.2,4.02-40.85,3.13c-15.73-1.13-32.641-4.29-44.471-15.55c-7.85-7.57-11.459-18.74-11.18-29.48
					c-0.3-10.91,4.271-21.89,12.57-29.04C1545,220.17,1559.811,216.12,1574.09,213.75L1574.09,213.75z"/>
				<path id="Shape_18_" fill="#FEFDFD" d="M2330.689,393.61c9.811-12.511,14.33-28.41,15.311-44.091V426h-95.41
					c16.521-0.83,33.21-3.16,48.63-9.41C2311.37,411.68,2322.65,404.07,2330.689,393.61L2330.689,393.61z"/>
			</g>
			<path id="Sponsored-by-EMC" sketch:type="MSShapeGroup" fill="#575757" d="M944.722,415.29h12.78
				c-0.189-5.585-1.254-10.39-3.195-14.413c-1.94-4.023-4.591-7.36-7.951-10.011c-3.361-2.651-7.266-4.592-11.716-5.822
				c-4.449-1.23-9.277-1.846-14.483-1.846c-4.639,0-9.159,0.592-13.562,1.774c-4.401,1.184-8.33,2.982-11.786,5.396
				c-3.455,2.414-6.224,5.49-8.307,9.229s-3.124,8.165-3.124,13.277c0,4.639,0.923,8.496,2.769,11.573
				c1.847,3.076,4.308,5.585,7.385,7.525c3.076,1.941,6.556,3.503,10.437,4.687c3.882,1.184,7.834,2.225,11.857,3.124
				s7.976,1.774,11.856,2.627c3.882,0.852,7.36,1.964,10.438,3.337c3.076,1.373,5.538,3.147,7.384,5.325
				c1.846,2.177,2.769,5.018,2.769,8.52c0,3.692-0.757,6.722-2.271,9.088c-1.515,2.367-3.503,4.236-5.964,5.609
				c-2.462,1.373-5.23,2.343-8.308,2.911c-3.076,0.567-6.129,0.852-9.158,0.852c-3.787,0-7.479-0.473-11.076-1.42
				c-3.598-0.946-6.745-2.414-9.443-4.401c-2.698-1.988-4.875-4.521-6.532-7.598c-1.656-3.076-2.484-6.745-2.484-11.005h-12.78
				c0,6.153,1.112,11.479,3.337,15.976c2.225,4.496,5.254,8.188,9.088,11.075c3.834,2.888,8.283,5.041,13.349,6.461
				c5.064,1.421,10.437,2.131,16.116,2.131c4.64,0,9.302-0.545,13.987-1.634c4.687-1.088,8.922-2.84,12.709-5.254
				s6.887-5.538,9.301-9.372s3.621-8.448,3.621-13.845c0-5.018-0.923-9.183-2.769-12.496c-1.847-3.313-4.308-6.059-7.384-8.236
				c-3.077-2.177-6.556-3.904-10.438-5.183c-3.881-1.278-7.834-2.391-11.856-3.337c-4.023-0.946-7.976-1.822-11.857-2.627
				s-7.36-1.822-10.437-3.053c-3.077-1.231-5.538-2.816-7.385-4.758c-1.846-1.94-2.769-4.473-2.769-7.597
				c0-3.313,0.639-6.082,1.917-8.307c1.277-2.225,2.981-4,5.111-5.325c2.131-1.325,4.568-2.272,7.313-2.84
				c2.745-0.568,5.538-0.853,8.378-0.853c7.006,0,12.757,1.634,17.253,4.899C941.338,402.723,943.965,408.001,944.722,415.29
				L944.722,415.29z M976.53,413.586v101.388H988.6v-37.771h0.284c1.325,2.177,2.958,3.999,4.899,5.467
				c1.94,1.468,4,2.627,6.177,3.479c2.178,0.852,4.378,1.467,6.603,1.846s4.236,0.568,6.035,0.568
				c5.586,0,10.484-0.994,14.697-2.982s7.716-4.71,10.508-8.165c2.793-3.455,4.876-7.502,6.248-12.141
				c1.373-4.639,2.06-9.562,2.06-14.769s-0.71-10.129-2.13-14.768c-1.421-4.639-3.526-8.733-6.319-12.283s-6.296-6.366-10.508-8.449
				c-4.213-2.083-9.159-3.124-14.839-3.124c-5.112,0-9.799,0.923-14.059,2.77c-4.26,1.846-7.384,4.804-9.372,8.875H988.6v-9.94
				H976.53z M1033.33,449.654c0,3.597-0.379,7.1-1.136,10.508c-0.758,3.408-1.988,6.438-3.692,9.088s-3.952,4.78-6.745,6.39
				c-2.792,1.609-6.271,2.414-10.437,2.414c-4.166,0-7.716-0.78-10.65-2.343c-2.935-1.562-5.325-3.621-7.171-6.177
				c-1.846-2.557-3.195-5.515-4.047-8.875c-0.853-3.361-1.278-6.84-1.278-10.438c0-3.407,0.402-6.769,1.207-10.082
				s2.106-6.271,3.905-8.875c1.799-2.603,4.118-4.709,6.958-6.318s6.295-2.414,10.366-2.414c3.881,0,7.266,0.757,10.152,2.271
				c2.888,1.515,5.254,3.55,7.101,6.106c1.846,2.556,3.219,5.467,4.117,8.732C1032.881,442.909,1033.33,446.246,1033.33,449.654
				L1033.33,449.654z M1069.114,450.364c0-4.449,0.592-8.402,1.774-11.857c1.184-3.455,2.816-6.366,4.899-8.732
				c2.083-2.367,4.521-4.166,7.312-5.396c2.793-1.23,5.751-1.846,8.875-1.846s6.083,0.615,8.875,1.846
				c2.793,1.23,5.23,3.029,7.313,5.396c2.083,2.366,3.716,5.277,4.898,8.732c1.184,3.455,1.775,7.408,1.775,11.857
				s-0.592,8.401-1.775,11.856c-1.183,3.456-2.815,6.343-4.898,8.662s-4.521,4.095-7.313,5.325c-2.792,1.23-5.751,1.846-8.875,1.846
				s-6.082-0.615-8.875-1.846c-2.792-1.23-5.229-3.006-7.312-5.325s-3.716-5.206-4.899-8.662
				C1069.706,458.766,1069.114,454.813,1069.114,450.364L1069.114,450.364z M1056.334,450.364c0,5.396,0.758,10.413,2.271,15.052
				c1.516,4.639,3.787,8.686,6.816,12.141c3.029,3.456,6.769,6.153,11.218,8.095c4.45,1.94,9.562,2.911,15.336,2.911
				c5.87,0,11.005-0.971,15.407-2.911c4.402-1.941,8.118-4.639,11.147-8.095c3.029-3.455,5.301-7.502,6.815-12.141
				s2.272-9.656,2.272-15.052c0-5.396-0.758-10.438-2.272-15.123c-1.515-4.687-3.786-8.757-6.815-12.212
				c-3.029-3.456-6.745-6.178-11.147-8.165c-4.402-1.988-9.537-2.982-15.407-2.982c-5.774,0-10.886,0.994-15.336,2.982
				c-4.449,1.987-8.188,4.709-11.218,8.165c-3.029,3.455-5.301,7.525-6.816,12.212
				C1057.092,439.927,1056.334,444.968,1056.334,450.364L1056.334,450.364z M1141.818,413.586V487h12.069v-41.464
				c0-3.313,0.45-6.366,1.35-9.159s2.248-5.23,4.047-7.312c1.799-2.083,4.047-3.692,6.745-4.828
				c2.697-1.137,5.893-1.704,9.585-1.704c4.639,0,8.283,1.325,10.934,3.976c2.651,2.65,3.977,6.248,3.977,10.792V487h12.069v-48.28
				c0-3.976-0.402-7.597-1.207-10.862c-0.805-3.267-2.201-6.083-4.188-8.449c-1.988-2.367-4.592-4.213-7.811-5.538
				s-7.241-1.988-12.069-1.988c-10.887,0-18.839,4.449-23.856,13.349h-0.284v-11.645H1141.818z M1228.154,463.854h-12.07
				c0.189,4.545,1.136,8.402,2.84,11.573c1.704,3.172,3.977,5.728,6.816,7.668c2.84,1.941,6.105,3.337,9.798,4.189
				c3.692,0.852,7.573,1.278,11.644,1.278c3.692,0,7.408-0.355,11.147-1.065s7.1-1.965,10.082-3.763
				c2.981-1.799,5.396-4.166,7.242-7.101c1.846-2.935,2.769-6.626,2.769-11.076c0-3.502-0.687-6.437-2.059-8.804
				c-1.373-2.366-3.172-4.331-5.396-5.893c-2.225-1.562-4.78-2.816-7.668-3.764c-2.887-0.946-5.846-1.751-8.875-2.414
				c-2.84-0.662-5.68-1.301-8.52-1.917c-2.84-0.615-5.396-1.372-7.668-2.271c-2.272-0.899-4.142-2.035-5.609-3.408
				c-1.467-1.373-2.201-3.101-2.201-5.183c0-1.894,0.474-3.432,1.42-4.615c0.947-1.184,2.178-2.13,3.692-2.84
				s3.195-1.207,5.041-1.491s3.668-0.426,5.467-0.426c1.988,0,3.952,0.213,5.894,0.639c1.94,0.426,3.715,1.112,5.324,2.06
				c1.609,0.946,2.935,2.2,3.977,3.763c1.041,1.562,1.656,3.526,1.846,5.893h12.07c-0.284-4.449-1.23-8.165-2.84-11.146
				c-1.609-2.982-3.764-5.349-6.461-7.101c-2.698-1.751-5.799-2.981-9.302-3.691s-7.336-1.065-11.502-1.065
				c-3.219,0-6.461,0.402-9.727,1.207c-3.267,0.805-6.201,2.035-8.804,3.692c-2.604,1.656-4.733,3.811-6.391,6.461
				c-1.656,2.65-2.484,5.822-2.484,9.514c0,4.733,1.183,8.426,3.55,11.076c2.366,2.65,5.325,4.71,8.875,6.177
				c3.55,1.468,7.407,2.604,11.573,3.408c4.165,0.805,8.022,1.704,11.572,2.698s6.509,2.295,8.875,3.904
				c2.367,1.609,3.55,3.977,3.55,7.101c0,2.271-0.567,4.142-1.704,5.608c-1.136,1.468-2.579,2.58-4.33,3.338
				c-1.752,0.757-3.669,1.277-5.752,1.562c-2.082,0.284-4.07,0.426-5.964,0.426c-2.461,0-4.852-0.236-7.171-0.71
				c-2.319-0.473-4.401-1.254-6.248-2.343c-1.846-1.089-3.337-2.556-4.473-4.402
				C1228.864,468.753,1228.249,466.505,1228.154,463.854L1228.154,463.854z M1300.574,450.364c0-4.449,0.592-8.402,1.774-11.857
				c1.184-3.455,2.816-6.366,4.899-8.732c2.083-2.367,4.521-4.166,7.312-5.396c2.793-1.23,5.752-1.846,8.875-1.846
				c3.125,0,6.083,0.615,8.875,1.846c2.793,1.23,5.23,3.029,7.313,5.396c2.083,2.366,3.716,5.277,4.899,8.732
				c1.183,3.455,1.774,7.408,1.774,11.857s-0.592,8.401-1.774,11.856c-1.184,3.456-2.816,6.343-4.899,8.662
				s-4.521,4.095-7.313,5.325c-2.792,1.23-5.75,1.846-8.875,1.846c-3.123,0-6.082-0.615-8.875-1.846
				c-2.792-1.23-5.229-3.006-7.312-5.325s-3.716-5.206-4.899-8.662C1301.166,458.766,1300.574,454.813,1300.574,450.364
				L1300.574,450.364z M1287.794,450.364c0,5.396,0.757,10.413,2.272,15.052c1.515,4.639,3.786,8.686,6.815,12.141
				c3.029,3.456,6.769,6.153,11.218,8.095c4.449,1.94,9.562,2.911,15.336,2.911c5.87,0,11.006-0.971,15.407-2.911
				c4.402-1.941,8.118-4.639,11.147-8.095c3.029-3.455,5.301-7.502,6.815-12.141s2.272-9.656,2.272-15.052
				c0-5.396-0.758-10.438-2.272-15.123c-1.515-4.687-3.786-8.757-6.815-12.212c-3.029-3.456-6.745-6.178-11.147-8.165
				c-4.401-1.988-9.537-2.982-15.407-2.982c-5.774,0-10.887,0.994-15.336,2.982c-4.449,1.987-8.188,4.709-11.218,8.165
				c-3.029,3.455-5.301,7.525-6.815,12.212C1288.551,439.927,1287.794,444.968,1287.794,450.364L1287.794,450.364z
				 M1372.852,413.586V487h12.07v-32.66c0-4.733,0.474-8.922,1.42-12.566c0.947-3.646,2.462-6.745,4.544-9.302
				c2.083-2.556,4.828-4.496,8.236-5.821c3.408-1.326,7.526-1.988,12.354-1.988v-12.78c-6.531-0.189-11.928,1.136-16.188,3.977
				c-4.26,2.84-7.857,7.241-10.792,13.206h-0.284v-15.479H1372.852z M1468.986,443.264h-42.174c0.188-2.84,0.805-5.514,1.846-8.022
				s2.461-4.71,4.26-6.604c1.799-1.893,3.952-3.384,6.461-4.473s5.325-1.633,8.449-1.633c3.029,0,5.798,0.544,8.307,1.633
				s4.687,2.556,6.532,4.402c1.846,1.846,3.313,4.047,4.402,6.603S1468.797,440.424,1468.986,443.264L1468.986,443.264z
				 M1480.63,463.712h-11.928c-1.042,4.828-3.195,8.426-6.461,10.792c-3.267,2.367-7.455,3.55-12.567,3.55
				c-3.976,0-7.432-0.662-10.366-1.987c-2.935-1.326-5.349-3.101-7.241-5.325c-1.894-2.225-3.267-4.781-4.118-7.668
				c-0.853-2.888-1.231-5.94-1.136-9.159h54.953c0.189-4.449-0.213-9.136-1.207-14.058c-0.994-4.923-2.792-9.467-5.396-13.633
				c-2.604-4.165-6.059-7.597-10.366-10.295c-4.308-2.697-9.727-4.047-16.259-4.047c-5.018,0-9.633,0.947-13.845,2.84
				c-4.213,1.894-7.857,4.544-10.935,7.952c-3.076,3.408-5.467,7.432-7.171,12.07s-2.556,9.75-2.556,15.336
				c0.189,5.585,1.018,10.744,2.484,15.478c1.468,4.733,3.669,8.805,6.604,12.212c2.935,3.408,6.556,6.06,10.863,7.952
				c4.307,1.894,9.396,2.841,15.265,2.841c8.331,0,15.241-2.083,20.732-6.248C1475.471,478.148,1479.021,471.948,1480.63,463.712
				L1480.63,463.712z M1503.066,450.932c0-3.597,0.378-7.1,1.136-10.508c0.757-3.408,1.987-6.438,3.692-9.088
				c1.703-2.65,3.976-4.78,6.815-6.39s6.295-2.414,10.366-2.414c4.165,0,7.715,0.78,10.649,2.343s5.325,3.621,7.171,6.177
				c1.847,2.557,3.195,5.515,4.048,8.875c0.852,3.361,1.277,6.84,1.277,10.438c0,3.408-0.402,6.769-1.207,10.082
				s-2.106,6.271-3.904,8.875c-1.799,2.604-4.118,4.709-6.958,6.318s-6.296,2.414-10.366,2.414c-3.882,0-7.266-0.757-10.153-2.271
				c-2.887-1.515-5.254-3.55-7.1-6.106c-1.846-2.556-3.219-5.467-4.118-8.732C1503.516,457.677,1503.066,454.34,1503.066,450.932
				L1503.066,450.932z M1559.866,487V385.612h-12.07v37.771h-0.284c-1.325-2.177-2.958-3.999-4.898-5.467
				c-1.941-1.468-4-2.65-6.178-3.55c-2.177-0.899-4.354-1.538-6.531-1.917c-2.178-0.379-4.213-0.568-6.106-0.568
				c-5.585,0-10.484,1.018-14.697,3.053c-4.212,2.036-7.715,4.781-10.508,8.236c-2.792,3.455-4.875,7.502-6.248,12.142
				c-1.372,4.639-2.059,9.561-2.059,14.768s0.71,10.129,2.13,14.768s3.526,8.71,6.319,12.212c2.792,3.503,6.295,6.296,10.508,8.378
				c4.213,2.083,9.159,3.125,14.839,3.125c5.112,0,9.798-0.899,14.058-2.698c4.261-1.799,7.385-4.733,9.372-8.805h0.284V487
				H1559.866z M1618.37,385.612V487h12.069v-9.798h0.284c1.325,2.177,2.959,3.999,4.899,5.467s4,2.627,6.177,3.479
				c2.178,0.852,4.379,1.467,6.604,1.846s4.236,0.568,6.034,0.568c5.586,0,10.484-0.994,14.697-2.982s7.716-4.71,10.508-8.165
				c2.793-3.455,4.876-7.502,6.248-12.141c1.373-4.639,2.06-9.562,2.06-14.769s-0.71-10.129-2.13-14.768s-3.526-8.733-6.319-12.283
				s-6.295-6.366-10.508-8.449s-9.159-3.124-14.839-3.124c-5.112,0-9.798,0.923-14.059,2.77c-4.26,1.846-7.384,4.804-9.372,8.875
				h-0.284v-37.914H1618.37z M1675.17,449.654c0,3.597-0.379,7.1-1.136,10.508c-0.758,3.408-1.988,6.438-3.692,9.088
				s-3.952,4.78-6.745,6.39c-2.792,1.609-6.271,2.414-10.437,2.414c-4.166,0-7.716-0.78-10.65-2.343
				c-2.935-1.562-5.324-3.621-7.171-6.177c-1.846-2.557-3.194-5.515-4.047-8.875c-0.853-3.361-1.278-6.84-1.278-10.438
				c0-3.407,0.402-6.769,1.207-10.082s2.106-6.271,3.905-8.875c1.799-2.603,4.118-4.709,6.958-6.318s6.295-2.414,10.366-2.414
				c3.881,0,7.266,0.757,10.153,2.271c2.887,1.515,5.254,3.55,7.1,6.106c1.846,2.556,3.219,5.467,4.118,8.732
				C1674.721,442.909,1675.17,446.246,1675.17,449.654L1675.17,449.654z M1730.976,496.798c-1.42,3.598-2.815,6.627-4.188,9.088
				c-1.373,2.462-2.888,4.474-4.544,6.035c-1.657,1.562-3.503,2.698-5.538,3.408s-4.379,1.064-7.029,1.064
				c-1.42,0-2.84-0.095-4.26-0.283c-1.42-0.189-2.793-0.521-4.118-0.994V504.04c1.042,0.474,2.249,0.876,3.621,1.207
				c1.373,0.331,2.532,0.497,3.479,0.497c2.461,0,4.52-0.592,6.177-1.775c1.656-1.183,2.911-2.863,3.763-5.041l4.97-12.354
				l-29.109-72.988h13.632l21.441,60.066h0.284l20.591-60.066h12.779L1730.976,496.798z M1814.614,385.612V487h70.432v-11.36
				h-56.942v-35.073h52.683v-11.36h-52.683v-32.234h56.517v-11.359H1814.614z M1901.66,385.612V487h12.779v-84.348h0.284
				L1946.39,487h11.502l31.667-84.348h0.283V487h12.78V385.612h-18.46l-32.092,85.2l-31.95-85.2H1901.66z M2096.342,416.142h13.49
				c-0.758-5.396-2.367-10.152-4.828-14.271s-5.538-7.55-9.23-10.295c-3.691-2.745-7.904-4.828-12.638-6.248
				s-9.751-2.13-15.052-2.13c-7.763,0-14.649,1.396-20.661,4.188c-6.011,2.793-11.028,6.604-15.052,11.432
				s-7.076,10.484-9.159,16.969s-3.124,13.419-3.124,20.803s0.971,14.295,2.911,20.732s4.852,12.022,8.733,16.756
				c3.881,4.733,8.756,8.449,14.625,11.146c5.87,2.698,12.733,4.048,20.591,4.048c12.97,0,23.193-3.551,30.672-10.65
				c7.479-7.101,11.881-17.04,13.206-29.82h-13.49c-0.284,4.166-1.136,8.047-2.556,11.645c-1.42,3.597-3.385,6.697-5.894,9.301
				c-2.508,2.604-5.49,4.639-8.945,6.105c-3.456,1.468-7.408,2.201-11.857,2.201c-6.059,0-11.266-1.136-15.62-3.407
				c-4.354-2.272-7.929-5.325-10.721-9.159c-2.793-3.834-4.852-8.331-6.177-13.49c-1.326-5.159-1.988-10.626-1.988-16.401
				c0-5.301,0.662-10.413,1.988-15.336c1.325-4.923,3.384-9.301,6.177-13.135c2.792-3.834,6.343-6.887,10.649-9.159
				c4.308-2.271,9.49-3.408,15.549-3.408c7.101,0,13.23,1.799,18.39,5.396S2094.827,408.947,2096.342,416.142L2096.342,416.142z"/>
		</g>
	</g>
</g>
</svg>
