<?xml version="1.0" encoding="utf-8"?>
<!-- Generator: Adobe Illustrator 19.1.0, SVG Export Plug-In . SVG Version: 6.00 Build 0)  -->
<svg version="1.1" id="Layer_1" xmlns:sketch="http://www.bohemiancoding.com/sketch/ns"
	 xmlns="http://www.w3.org/2000/svg" xmlns:xlink="http://www.w3.org/1999/xlink" x="0px" y="0px" viewBox="1406 133 2346 516.4"
	 style="enable-background:new 1406 133 2346 516.4;" xml:space="preserve">
<style type="text/css">
	.st0{display:none;fill:#FEFDFD;}
	.st1{fill:#242021;}
	.st2{fill:#B3272D;}
	.st3{fill:#575757;}
</style>
<title>cloudscaling logo blog lockup</title>
<desc>Created with Sketch.</desc>
<g id="Page-1" sketch:type="MSPage">
	<g id="cloudscaling-logo-blog-lockup" sketch:type="MSArtboardGroup">
		<g id="Cloudscaling_x5F_logo-_x2B_-Sponsored-by-EMC" transform="translate(267.000000, 391.000000)" sketch:type="MSLayerGroup">
			<g id="Cloudscaling_logo" sketch:type="MSShapeGroup">
				<path id="Shape" class="st0" d="M1139-258h226.6c-0.2,1.3-0.2,2.7-0.3,4c0,109.9,0,219.8,0,329.7c19.4,0,38.7,0,58.1,0
					c-0.1-111.2,0.1-222.4-0.1-333.6h706.9c0,30.6,0,61.3,0,91.9c-12.7-1.6-25.4-3.6-38.2-3.5c-21.5-0.3-43.6,3.3-62.6,13.9
					c-15.1,8.3-27.5,21.2-35.6,36.4c-9.9,18.5-14.1,39.5-15.2,60.3c-1,23.9,0.8,48.2,8.6,70.9c6.1,17.6,16.5,34,31.2,45.7
					c16.3,13.1,36.9,19.9,57.5,21.5c14.9,0.9,29.9,0.1,44.5-3c16.6-3.6,32.8-10.8,45.1-22.6c11.6-11,19.1-25.9,21.6-41.6
					c1.8-10.2,1-20.6,1.2-30.9v-239h684.2c-0.7,10-0.1,20-0.3,30c0,100.9,0,201.9,0,302.8c11.6,0,23.3,0,34.9,0
					c0-110.9,0-221.9,0-332.8H3485v157.4c-1-16.9-7.7-33.6-19.9-45.5c-12.3-12.2-29.2-18.7-46-21.8c-18.2-3-37-3.7-55.2,0.2
					c-16.5,3.5-32.4,11.2-44.5,23.1c-11.8,11.4-19.8,26.2-24.7,41.8c-7.1,22.4-8.3,46.3-7.2,69.7c1.2,19.1,5,38.4,13.9,55.5
					c6.8,13.1,17,24.6,29.7,32.5c18.6,11.8,41.1,15.9,62.9,15.7c19.1,0.2,38.1-3,56.3-8.5c-0.2,10,0.3,19.9-0.3,29.9
					c-0.6,9.3-3.6,18.9-10.3,25.6c-7.7,8.2-18.8,12.1-29.5,14.5c-18.7,3.7-38,3.6-56.9,1.9c-14-1.3-27.9-3.9-41.5-7.6
					c-0.1,11,0,21.9,0,32.9c19.8,5.1,40.2,8,60.6,8.7H1139V-37.4c0.9,28,7.2,57.1,24.8,79.6c14.5,18.8,36.6,30.5,59.6,34.8
					c33.2,6.1,67.9,1.5,99.2-10.7c0.1-16.2,0-32.4,0-48.6c-25.6,10.5-54.1,14.8-81.5,10.5c-13.7-2.2-27.2-9.5-34-22.1
					c-10.6-19.1-10.3-41.7-9.7-62.9c1.1-15.6,3.8-32.2,13.9-44.7c8-10,20.6-14.8,32.9-16.4c26.4-3.1,53.7,0.4,78.4,10.6
					c0-16.2,0.1-32.4,0-48.7c-23.4-9.1-48.5-14-73.7-13.4c-27.1,0.4-55.3,8.1-75.4,27c-19.9,18.4-29.8,45.1-33,71.4
					c-0.8,5.6-1.1,11.2-1.5,16.8V-258L1139-258z"/>
				<path id="Shape_1_" class="st1" d="M1365.6-258h57.8c0.1,111.2,0,222.4,0.1,333.6c-19.4,0.1-38.7,0-58.1,0
					c0-109.9,0-219.8,0-329.7C1365.3-255.3,1365.4-256.7,1365.6-258L1365.6-258z"/>
				<path id="Shape_3_" class="st2" d="M2872.6-258h34.6c0,110.9,0,221.9,0,332.8c-11.6,0.1-23.3,0-34.9,0c0-100.9,0-201.9,0-302.8
					C2872.4-238,2871.9-248,2872.6-258L2872.6-258z"/>
				<path id="Shape_4_" class="st2" d="M2960.4-247c9.9-0.3,19.7-0.1,29.6-0.1c3.1,0.1,6.2-0.4,9.3,0.5c-0.2,12.6,0,25.3-0.1,37.9
					c-12.9,0.1-25.9,0-38.8,0.1C2960.4-221.4,2960.4-234.2,2960.4-247L2960.4-247z"/>
				<path id="Shape_6_" class="st1" d="M1249-169.5c25.2-0.7,50.3,4.2,73.7,13.4c0.1,16.2,0,32.4,0,48.7
					c-24.7-10.2-51.9-13.7-78.4-10.6c-12.3,1.6-25,6.4-32.9,16.4c-10.1,12.5-12.8,29.1-13.9,44.7c-0.6,21.2-0.8,43.8,9.7,62.9
					c6.8,12.5,20.3,19.9,34,22.1c27.5,4.3,55.9,0,81.5-10.5c0,16.2,0.1,32.4,0,48.6c-31.3,12.3-66,16.9-99.2,10.7
					c-23.1-4.2-45.2-16-59.6-34.8c-17.6-22.5-23.9-51.6-24.8-79.6v-16.9c0.4-5.6,0.8-11.2,1.5-16.8c3.3-26.4,13.2-53.1,33-71.4
					C1193.7-161.4,1221.9-169.1,1249-169.5L1249-169.5z"/>
				<path id="Shape_7_" class="st2" d="M2287-166.8c31-7.4,64.3-2.8,92.7,11.6c-0.2,11.6,0.1,23.3-0.2,34.9
					c-18.4-11.2-40-17.2-61.5-16.4c-13.3,0.4-27.4,2.4-38.4,10.4c-8.2,6-12.7,16.2-12.2,26.3c-0.4,7.5,4.3,14.3,10.3,18.4
					c8.5,5.9,18.6,8.9,28.3,11.9c18.9,5.6,38.5,10.2,55.8,20c10.6,6,20.1,14.3,26.1,24.9c4.6,7.9,7.1,16.8,8.1,25.8
					c1.6,13.4,0.3,27.5-5.9,39.8c-6.6,13.3-18.7,23.2-32.2,29c-18.5,8-39,9.7-58.9,8.8c-22.2-1.1-44.2-7.2-63.6-18
					c0-12.3-0.1-24.5,0-36.8c19,11.4,40.4,19.2,62.6,20.8c14.6,0.6,29.7,0.4,43.5-5.1c8.2-3.2,15.9-9.3,18.7-18
					c2.8-9.1,1.7-19.4-2.9-27.7c-5.2-9.2-14.6-14.9-24.1-18.9c-20.1-8.4-41.8-11.8-61.8-20.3c-11.2-4.8-22.2-11.4-29.3-21.5
					c-6.9-9.5-9.8-21.4-9.6-33.1c-0.2-16.9,5.8-34,17.5-46.3C2259.8-156.8,2273.2-163.4,2287-166.8L2287-166.8z"/>
				<path id="Shape_8_" class="st2" d="M2511.9-169c31-3.9,62.6,1.2,91.8,12.1c0.3,5.7,0,11.3,0.2,17c-0.3,5.6,0.2,11.2-0.3,16.7
					c-23.8-10.1-49.9-14.6-75.6-13.3c-17.6,0.8-36.1,5-49.5,17c-10.5,9.1-16.7,22.2-20,35.6c-4.1,17-4.5,34.6-3.6,52
					c1.3,19.3,5.3,39.7,18.1,54.8c10.7,12.8,27.2,19.1,43.4,21.3c29.5,3.7,60-0.6,87.4-12.1c0,11.4,0.3,22.8-0.2,34.1
					c-22.3,8-45.9,12.8-69.6,12.7c-21.4,0.3-43.4-3.2-62.4-13.4c-15.5-8.2-28.2-21.2-36.4-36.6c-10.8-20.1-14.7-43.2-15.6-65.8
					c-0.7-24,1.3-48.6,10.1-71.1c6.5-17.1,17.9-32.6,33-43.1C2477.2-161.4,2494.5-166.9,2511.9-169L2511.9-169z"/>
				<path id="Shape_9_" class="st2" d="M3110.1-166.2c24.6-4.4,50.2-6.3,74.8-0.6c17.2,4.1,33.8,12.8,45,26.8
					c12.9,15.6,18,36.2,18.3,56.1c0,52.9,0,105.8,0,158.8c-11.6,0.1-23.3,0-34.9,0c0-53.3,0-106.5,0-159.8
					c-0.4-10.4-2.4-21.1-8.6-29.6c-7.1-10.2-19-15.8-30.8-18.3c-20.2-4.3-41.1-2.5-61.3,0.8c-9.1,1.8-18.2,3.6-27,6.6
					c0.1,66.8,0,133.6,0,200.4c-11.6,0-23.2,0-34.9,0c-0.1-73.8,0.1-147.5-0.1-221.3C3069.4-155.9,3089.6-162.1,3110.1-166.2
					L3110.1-166.2z"/>
				<path id="Shape_12_" class="st1" d="M1723.4-165.7c19.5,0,39,0,58.4,0c0,46.6,0,93.1,0,139.7c0.5,13.3,1.4,27.6,9.5,38.9
					c6.6,9.4,18,13.8,29,15.1c12.3,1.3,25,1.1,36.8-3c9-3.1,16.6-9.9,20.3-18.7c6.7-14.8,5.2-31.5,5.4-47.3c0-41.5,0-83.1,0-124.6
					c19.6-0.2,39.2-0.1,58.7-0.1c0,45.4,0.1,90.8,0,136.2c-0.5,21.6-5,43.7-16.2,62.5c-9,15.3-22.7,27.7-38.7,35.3
					c-20.6,9.9-44,12.4-66.6,10.8c-18.8-1.4-37.7-6.8-53.5-17.4c-14-9.4-25-22.9-32-38.2c-8-17.6-11.1-37.2-11.1-56.4
					C1723.4-77.2,1723.3-121.4,1723.4-165.7L1723.4-165.7z"/>
				<path id="Shape_13_" class="st2" d="M2962.3-165.8c4.2-0.7,8.5,0,12.8-0.1c7.4-0.2,14.8,0,22.2,0c0,80.2,0,160.4,0,240.6
					c-11.6,0.1-23.3,0-34.9,0.1C2962.2-5.4,2962.3-85.6,2962.3-165.8L2962.3-165.8z"/>
				<path class="st2" d="M3465.1-146c-12.3-12.2-29.2-18.7-46-21.8c-18.2-3-37-3.7-55.2,0.2c-16.5,3.5-32.4,11.2-44.5,23.1
					c-11.8,11.4-19.8,26.2-24.7,41.8c-7.1,22.4-8.3,46.3-7.2,69.7c1.2,19.1,5,38.4,13.9,55.5c6.8,13.2,17,24.6,29.7,32.5
					c18.6,11.8,41.1,15.9,62.9,15.7c19.1,0.2,38.1-3,56.3-8.5c-0.2,10,0.3,19.9-0.3,29.9c-0.6,9.3-3.6,18.9-10.3,25.6
					c-7.7,8.2-18.8,12.1-29.5,14.5c-18.7,3.7-38,3.6-56.9,1.9c-14-1.3-27.9-3.9-41.5-7.6c-0.1,11,0,21.9,0,32.9
					c19.8,5.1,40.2,8,60.6,8.7h17.3c16.5-0.8,33.2-3.2,48.6-9.4c12.2-4.9,23.4-12.5,31.5-23c9.8-12.5,14.3-28.4,15.3-44.1v-192.1
					C3484-117.4,3477.3-134.2,3465.1-146z M3450.3-94c0,40.4,0,80.7,0,121.1c-24.8,9.9-52.4,13.8-78.8,9.2
					c-14.6-2.6-28.4-10.8-36.2-23.5c-10.5-16.9-12.9-37.3-13-56.8c-0.3-21.8,1.5-44.4,11.6-64.1c6.5-13,18.3-23.2,32.3-27.1
					c11-3,22.6-3.7,33.9-2.5c9.3,0.3,18.7,2.1,27.3,5.6c7.9,3.3,15.3,8.9,19,16.7C3449.8-108.9,3450.4-101.3,3450.3-94z"/>
				<path class="st1" d="M2188.3-19v-239h-58.1c0,30.6,0,61.3,0,91.9c-12.7-1.6-25.4-3.6-38.2-3.5c-21.5-0.3-43.6,3.3-62.6,13.8
					c-15.1,8.3-27.5,21.2-35.6,36.5c-9.9,18.5-14.1,39.5-15.2,60.3c-1,23.9,0.8,48.2,8.6,70.9c6.1,17.6,16.5,34,31.2,45.7
					c16.3,13.1,36.9,19.9,57.5,21.5c14.9,1,29.9,0.1,44.5-3c16.6-3.6,32.8-10.8,45.1-22.6c11.6-11,19.1-25.9,21.6-41.6
					C2188.9,1.7,2188.1-8.7,2188.3-19z M2130.2,4.1c-0.1,7.5-3.5,15.2-10.2,18.9c-10.2,6-22.4,6.5-33.9,6.6
					c-12,0.2-24.9-3.1-33.3-12.3c-10.1-10.9-13.1-26.2-14.9-40.5c-1.8-19.5-2.4-39.4,1.7-58.7c2.8-13.1,9-26.5,20.7-33.8
					c12.6-8.2,28.3-8.3,42.8-7.6c9.1,0.8,18.4,1.3,27.3,3.9C2130.2-78.3,2130.2-37.1,2130.2,4.1z"/>
				<path class="st1" d="M1683.6-88.1c-4.5-19-13.2-37.4-27.1-51.4c-13.3-13.5-30.9-22.2-49.3-26.2c-17.5-3.8-35.7-4.2-53.5-2.2
					c-19.7,2.4-39.2,9.2-54.7,21.8c-18.6,14.8-29.9,37.2-34.9,60.1c-3.3,13.7-3.8,27.9-4.4,41.9c0.7,14,1.3,28.2,4.8,41.9
					c5.2,23,17,45.2,35.9,59.7c19.9,15.5,45.7,21.6,70.6,21.8c20.5,0.4,41.5-2.6,60.2-11.6c16.1-7.7,29.8-20.3,39-35.7
					c9.7-16.1,14.7-34.6,16.8-53.1C1689.4-43.3,1688.7-66.1,1683.6-88.1z M1627.1-10c-2.5,12.6-7.9,25.7-18.8,33.3
					c-11.4,7.8-25.9,8.6-39.3,8.2c-13.1-0.4-27.3-4-36-14.5c-10.4-12.5-13-29.3-14.3-45c-0.8-19.3-1.2-39,4-57.9
					c2.7-9.6,7.3-19,15.2-25.4c5.9-4.9,13.4-7.5,20.9-8.8c7.7-1,15.5-1.7,23.2-0.8c12.3,0.5,25.3,4.6,33.4,14.3
					c9.5,11.4,12.3,26.6,13.9,40.9C1630.7-47,1630.7-28.3,1627.1-10z"/>
				<path class="st2" d="M2825.3-17c0-18.7,0-37.4,0-56.1c-0.5-18.1-3.6-36.6-12.3-52.7c-7.6-14.2-19.8-25.9-34.3-32.9
					c-16.6-8.3-35.3-11.1-53.7-11.6c-25.7-0.4-51.5,4-75.8,12.5c-0.1,11.3-0.1,22.6,0,33.8c28.5-9.3,59-13.5,88.9-10.3
					c11,1.4,22.2,4.3,31.4,10.8c15.4,10.4,20.8,30.2,20.2,47.8c-22.4-2.9-45.2-3.3-67.8-1.3c-23.1,2.3-46.8,7.4-66.5,20.4
					c-14.2,9.2-25,23.9-28.3,40.6c-3.6,17.5-2,36.5,6.3,52.5c7.5,14.4,20.8,25,35.5,31.3c22.2,9.6,46.9,12.1,70.9,10.4
					c19.8-1.8,39.9-6.6,56.5-17.9c12.7-8.5,22.3-21.5,26.1-36.3C2826.4,10.7,2825.1-3.3,2825.3-17z M2790.4,3
					c-0.1,8.9-2.4,18.2-8.3,25.1c-6.3,7.8-15.8,12.4-25.3,14.8c-13.3,3.4-27.2,4-40.8,3.1c-15.7-1.1-32.6-4.3-44.5-15.5
					c-7.9-7.6-11.5-18.7-11.2-29.5c-0.3-10.9,4.3-21.9,12.6-29c11.1-9.8,25.9-13.8,40.2-16.2c16.8-2.6,33.9-2.6,50.8-2
					c8.9,0.7,17.8,1,26.5,2.7C2790.3-28,2790.4-12.5,2790.4,3z"/>
			</g>
			<path id="Sponsored-by-EMC" sketch:type="MSShapeGroup" class="st3" d="M2083.7,157.3h12.8c-0.2-5.6-1.3-10.4-3.2-14.4
				c-1.9-4-4.6-7.4-8-10c-3.4-2.7-7.3-4.6-11.7-5.8c-4.4-1.2-9.3-1.8-14.5-1.8c-4.6,0-9.2,0.6-13.6,1.8c-4.4,1.2-8.3,3-11.8,5.4
				c-3.5,2.4-6.2,5.5-8.3,9.2c-2.1,3.7-3.1,8.2-3.1,13.3c0,4.6,0.9,8.5,2.8,11.6s4.3,5.6,7.4,7.5s6.6,3.5,10.4,4.7
				c3.9,1.2,7.8,2.2,11.9,3.1c4,0.9,8,1.8,11.9,2.6c3.9,0.9,7.4,2,10.4,3.3c3.1,1.4,5.5,3.1,7.4,5.3c1.8,2.2,2.8,5,2.8,8.5
				c0,3.7-0.8,6.7-2.3,9.1c-1.5,2.4-3.5,4.2-6,5.6c-2.5,1.4-5.2,2.3-8.3,2.9s-6.1,0.9-9.2,0.9c-3.8,0-7.5-0.5-11.1-1.4
				c-3.6-0.9-6.7-2.4-9.4-4.4s-4.9-4.5-6.5-7.6c-1.7-3.1-2.5-6.7-2.5-11h-12.8c0,6.2,1.1,11.5,3.3,16c2.2,4.5,5.3,8.2,9.1,11.1
				s8.3,5,13.3,6.5c5.1,1.4,10.4,2.1,16.1,2.1c4.6,0,9.3-0.5,14-1.6c4.7-1.1,8.9-2.8,12.7-5.3c3.8-2.4,6.9-5.5,9.3-9.4
				c2.4-3.8,3.6-8.4,3.6-13.8c0-5-0.9-9.2-2.8-12.5s-4.3-6.1-7.4-8.2s-6.6-3.9-10.4-5.2c-3.9-1.3-7.8-2.4-11.9-3.3
				c-4-0.9-8-1.8-11.9-2.6c-3.9-0.8-7.4-1.8-10.4-3.1c-3.1-1.2-5.5-2.8-7.4-4.8c-1.8-1.9-2.8-4.5-2.8-7.6c0-3.3,0.6-6.1,1.9-8.3
				c1.3-2.2,3-4,5.1-5.3c2.1-1.3,4.6-2.3,7.3-2.8s5.5-0.9,8.4-0.9c7,0,12.8,1.6,17.3,4.9C2080.3,144.7,2083,150,2083.7,157.3
				L2083.7,157.3z M2115.5,155.6V257h12.1v-37.8h0.3c1.3,2.2,3,4,4.9,5.5s4,2.6,6.2,3.5c2.2,0.9,4.4,1.5,6.6,1.8
				c2.2,0.4,4.2,0.6,6,0.6c5.6,0,10.5-1,14.7-3c4.2-2,7.7-4.7,10.5-8.2s4.9-7.5,6.2-12.1c1.4-4.6,2.1-9.6,2.1-14.8
				s-0.7-10.1-2.1-14.8c-1.4-4.6-3.5-8.7-6.3-12.3c-2.8-3.6-6.3-6.4-10.5-8.4c-4.2-2.1-9.2-3.1-14.8-3.1c-5.1,0-9.8,0.9-14.1,2.8
				c-4.3,1.8-7.4,4.8-9.4,8.9h-0.3v-9.9H2115.5z M2172.3,191.7c0,3.6-0.4,7.1-1.1,10.5c-0.8,3.4-2,6.4-3.7,9.1s-4,4.8-6.7,6.4
				c-2.8,1.6-6.3,2.4-10.4,2.4s-7.7-0.8-10.7-2.3c-2.9-1.6-5.3-3.6-7.2-6.2c-1.8-2.6-3.2-5.5-4-8.9c-0.9-3.4-1.3-6.8-1.3-10.4
				c0-3.4,0.4-6.8,1.2-10.1c0.8-3.3,2.1-6.3,3.9-8.9c1.8-2.6,4.1-4.7,7-6.3c2.8-1.6,6.3-2.4,10.4-2.4c3.9,0,7.3,0.8,10.2,2.3
				c2.9,1.5,5.3,3.5,7.1,6.1c1.8,2.6,3.2,5.5,4.1,8.7S2172.3,188.2,2172.3,191.7L2172.3,191.7z M2208.1,192.4
				c0-4.4,0.6-8.4,1.8-11.9c1.2-3.5,2.8-6.4,4.9-8.7c2.1-2.4,4.5-4.2,7.3-5.4c2.8-1.2,5.8-1.8,8.9-1.8s6.1,0.6,8.9,1.8
				c2.8,1.2,5.2,3,7.3,5.4c2.1,2.4,3.7,5.3,4.9,8.7s1.8,7.4,1.8,11.9c0,4.4-0.6,8.4-1.8,11.9s-2.8,6.3-4.9,8.7
				c-2.1,2.3-4.5,4.1-7.3,5.3c-2.8,1.2-5.8,1.8-8.9,1.8s-6.1-0.6-8.9-1.8c-2.8-1.2-5.2-3-7.3-5.3c-2.1-2.3-3.7-5.2-4.9-8.7
				C2208.7,200.8,2208.1,196.8,2208.1,192.4L2208.1,192.4z M2195.3,192.4c0,5.4,0.8,10.4,2.3,15.1c1.5,4.6,3.8,8.7,6.8,12.1
				s6.8,6.2,11.2,8.1c4.4,1.9,9.6,2.9,15.3,2.9c5.9,0,11-1,15.4-2.9s8.1-4.6,11.1-8.1c3-3.5,5.3-7.5,6.8-12.1
				c1.5-4.6,2.3-9.7,2.3-15.1s-0.8-10.4-2.3-15.1c-1.5-4.7-3.8-8.8-6.8-12.2c-3-3.5-6.7-6.2-11.1-8.2c-4.4-2-9.5-3-15.4-3
				c-5.8,0-10.9,1-15.3,3c-4.4,2-8.2,4.7-11.2,8.2s-5.3,7.5-6.8,12.2S2195.3,187,2195.3,192.4L2195.3,192.4z M2280.8,155.6V229h12.1
				v-41.5c0-3.3,0.4-6.4,1.3-9.2c0.9-2.8,2.2-5.2,4-7.3c1.8-2.1,4-3.7,6.7-4.8c2.7-1.1,5.9-1.7,9.6-1.7c4.6,0,8.3,1.3,10.9,4
				c2.7,2.7,4,6.2,4,10.8V229h12.1v-48.3c0-4-0.4-7.6-1.2-10.9s-2.2-6.1-4.2-8.4c-2-2.4-4.6-4.2-7.8-5.5c-3.2-1.3-7.2-2-12.1-2
				c-10.9,0-18.8,4.4-23.9,13.3h-0.3v-11.6H2280.8z M2367.2,205.9h-12.1c0.2,4.5,1.1,8.4,2.8,11.6c1.7,3.2,4,5.7,6.8,7.7
				s6.1,3.3,9.8,4.2c3.7,0.9,7.6,1.3,11.6,1.3c3.7,0,7.4-0.4,11.1-1.1c3.7-0.7,7.1-2,10.1-3.8c3-1.8,5.4-4.2,7.2-7.1
				c1.8-2.9,2.8-6.6,2.8-11.1c0-3.5-0.7-6.4-2.1-8.8s-3.2-4.3-5.4-5.9c-2.2-1.6-4.8-2.8-7.7-3.8c-2.9-0.9-5.8-1.8-8.9-2.4
				c-2.8-0.7-5.7-1.3-8.5-1.9s-5.4-1.4-7.7-2.3c-2.3-0.9-4.1-2-5.6-3.4s-2.2-3.1-2.2-5.2c0-1.9,0.5-3.4,1.4-4.6
				c0.9-1.2,2.2-2.1,3.7-2.8c1.5-0.7,3.2-1.2,5-1.5c1.8-0.3,3.7-0.4,5.5-0.4c2,0,4,0.2,5.9,0.6c1.9,0.4,3.7,1.1,5.3,2.1
				c1.6,0.9,2.9,2.2,4,3.8s1.7,3.5,1.8,5.9h12.1c-0.3-4.4-1.2-8.2-2.8-11.1c-1.6-3-3.8-5.3-6.5-7.1s-5.8-3-9.3-3.7
				c-3.5-0.7-7.3-1.1-11.5-1.1c-3.2,0-6.5,0.4-9.7,1.2c-3.3,0.8-6.2,2-8.8,3.7s-4.7,3.8-6.4,6.5c-1.7,2.7-2.5,5.8-2.5,9.5
				c0,4.7,1.2,8.4,3.6,11.1c2.4,2.7,5.3,4.7,8.9,6.2s7.4,2.6,11.6,3.4c4.2,0.8,8,1.7,11.6,2.7c3.6,1,6.5,2.3,8.9,3.9s3.6,4,3.6,7.1
				c0,2.3-0.6,4.1-1.7,5.6s-2.6,2.6-4.3,3.3c-1.8,0.8-3.7,1.3-5.8,1.6c-2.1,0.3-4.1,0.4-6,0.4c-2.5,0-4.9-0.2-7.2-0.7
				s-4.4-1.3-6.2-2.3c-1.8-1.1-3.3-2.6-4.5-4.4S2367.2,208.5,2367.2,205.9L2367.2,205.9z M2439.6,192.4c0-4.4,0.6-8.4,1.8-11.9
				c1.2-3.5,2.8-6.4,4.9-8.7c2.1-2.4,4.5-4.2,7.3-5.4c2.8-1.2,5.8-1.8,8.9-1.8s6.1,0.6,8.9,1.8c2.8,1.2,5.2,3,7.3,5.4
				c2.1,2.4,3.7,5.3,4.9,8.7s1.8,7.4,1.8,11.9c0,4.4-0.6,8.4-1.8,11.9s-2.8,6.3-4.9,8.7c-2.1,2.3-4.5,4.1-7.3,5.3
				c-2.8,1.2-5.8,1.8-8.9,1.8s-6.1-0.6-8.9-1.8c-2.8-1.2-5.2-3-7.3-5.3c-2.1-2.3-3.7-5.2-4.9-8.7
				C2440.2,200.8,2439.6,196.8,2439.6,192.4L2439.6,192.4z M2426.8,192.4c0,5.4,0.8,10.4,2.3,15.1c1.5,4.6,3.8,8.7,6.8,12.1
				c3,3.5,6.8,6.2,11.2,8.1c4.4,1.9,9.6,2.9,15.3,2.9c5.9,0,11-1,15.4-2.9s8.1-4.6,11.1-8.1c3-3.5,5.3-7.5,6.8-12.1
				c1.5-4.6,2.3-9.7,2.3-15.1s-0.8-10.4-2.3-15.1s-3.8-8.8-6.8-12.2c-3-3.5-6.7-6.2-11.1-8.2c-4.4-2-9.5-3-15.4-3
				c-5.8,0-10.9,1-15.3,3c-4.4,2-8.2,4.7-11.2,8.2c-3,3.5-5.3,7.5-6.8,12.2S2426.8,187,2426.8,192.4L2426.8,192.4z M2511.9,155.6
				V229h12.1v-32.7c0-4.7,0.5-8.9,1.4-12.6s2.5-6.7,4.5-9.3c2.1-2.6,4.8-4.5,8.2-5.8c3.4-1.3,7.5-2,12.4-2v-12.8
				c-6.5-0.2-11.9,1.1-16.2,4c-4.3,2.8-7.9,7.2-10.8,13.2h-0.3v-15.5H2511.9z M2608,185.3h-42.2c0.2-2.8,0.8-5.5,1.8-8
				s2.5-4.7,4.3-6.6s4-3.4,6.5-4.5c2.5-1.1,5.3-1.6,8.4-1.6c3,0,5.8,0.5,8.3,1.6c2.5,1.1,4.7,2.6,6.5,4.4c1.8,1.8,3.3,4,4.4,6.6
				C2607.2,179.7,2607.8,182.4,2608,185.3L2608,185.3z M2619.6,205.7h-11.9c-1,4.8-3.2,8.4-6.5,10.8c-3.3,2.4-7.5,3.5-12.6,3.5
				c-4,0-7.4-0.7-10.4-2c-2.9-1.3-5.3-3.1-7.2-5.3c-1.9-2.2-3.3-4.8-4.1-7.7s-1.2-5.9-1.1-9.2h55c0.2-4.4-0.2-9.1-1.2-14.1
				c-1-4.9-2.8-9.5-5.4-13.6c-2.6-4.2-6.1-7.6-10.4-10.3c-4.3-2.7-9.7-4-16.3-4c-5,0-9.6,0.9-13.8,2.8c-4.2,1.9-7.9,4.5-10.9,8
				s-5.5,7.4-7.2,12.1c-1.7,4.6-2.6,9.8-2.6,15.3c0.2,5.6,1,10.7,2.5,15.5c1.5,4.7,3.7,8.8,6.6,12.2c2.9,3.4,6.6,6.1,10.9,8
				c4.3,1.9,9.4,2.8,15.3,2.8c8.3,0,15.2-2.1,20.7-6.2S2618,213.9,2619.6,205.7L2619.6,205.7z M2642.1,192.9c0-3.6,0.4-7.1,1.1-10.5
				s2-6.4,3.7-9.1c1.7-2.7,4-4.8,6.8-6.4c2.8-1.6,6.3-2.4,10.4-2.4c4.2,0,7.7,0.8,10.6,2.3c2.9,1.6,5.3,3.6,7.2,6.2
				c1.8,2.6,3.2,5.5,4,8.9c0.9,3.4,1.3,6.8,1.3,10.4c0,3.4-0.4,6.8-1.2,10.1c-0.8,3.3-2.1,6.3-3.9,8.9c-1.8,2.6-4.1,4.7-7,6.3
				c-2.8,1.6-6.3,2.4-10.4,2.4c-3.9,0-7.3-0.8-10.2-2.3c-2.9-1.5-5.3-3.5-7.1-6.1c-1.8-2.6-3.2-5.5-4.1-8.7
				S2642.1,196.3,2642.1,192.9L2642.1,192.9z M2698.9,229V127.6h-12.1v37.8h-0.3c-1.3-2.2-3-4-4.9-5.5s-4-2.7-6.2-3.5
				c-2.2-0.9-4.4-1.5-6.5-1.9c-2.2-0.4-4.2-0.6-6.1-0.6c-5.6,0-10.5,1-14.7,3.1c-4.2,2-7.7,4.8-10.5,8.2s-4.9,7.5-6.2,12.1
				c-1.4,4.6-2.1,9.6-2.1,14.8c0,5.2,0.7,10.1,2.1,14.8c1.4,4.6,3.5,8.7,6.3,12.2c2.8,3.5,6.3,6.3,10.5,8.4
				c4.2,2.1,9.2,3.1,14.8,3.1c5.1,0,9.8-0.9,14.1-2.7c4.3-1.8,7.4-4.7,9.4-8.8h0.3v9.9H2698.9z M2757.4,127.6V229h12.1v-9.8h0.3
				c1.3,2.2,3,4,4.9,5.5s4,2.6,6.2,3.5c2.2,0.9,4.4,1.5,6.6,1.8c2.2,0.4,4.2,0.6,6,0.6c5.6,0,10.5-1,14.7-3c4.2-2,7.7-4.7,10.5-8.2
				c2.8-3.5,4.9-7.5,6.2-12.1c1.4-4.6,2.1-9.6,2.1-14.8s-0.7-10.1-2.1-14.8c-1.4-4.6-3.5-8.7-6.3-12.3c-2.8-3.6-6.3-6.4-10.5-8.4
				c-4.2-2.1-9.2-3.1-14.8-3.1c-5.1,0-9.8,0.9-14.1,2.8s-7.4,4.8-9.4,8.9h-0.3v-37.9H2757.4z M2814.2,191.7c0,3.6-0.4,7.1-1.1,10.5
				c-0.8,3.4-2,6.4-3.7,9.1c-1.7,2.7-4,4.8-6.7,6.4c-2.8,1.6-6.3,2.4-10.4,2.4c-4.2,0-7.7-0.8-10.7-2.3s-5.3-3.6-7.2-6.2
				c-1.8-2.6-3.2-5.5-4-8.9s-1.3-6.8-1.3-10.4c0-3.4,0.4-6.8,1.2-10.1c0.8-3.3,2.1-6.3,3.9-8.9c1.8-2.6,4.1-4.7,7-6.3
				c2.8-1.6,6.3-2.4,10.4-2.4c3.9,0,7.3,0.8,10.2,2.3c2.9,1.5,5.3,3.5,7.1,6.1c1.8,2.6,3.2,5.5,4.1,8.7
				C2813.7,184.9,2814.2,188.2,2814.2,191.7L2814.2,191.7z M2870,238.8c-1.4,3.6-2.8,6.6-4.2,9.1c-1.4,2.5-2.9,4.5-4.5,6
				c-1.7,1.6-3.5,2.7-5.5,3.4c-2,0.7-4.4,1.1-7,1.1c-1.4,0-2.8-0.1-4.3-0.3s-2.8-0.5-4.1-1V246c1,0.5,2.2,0.9,3.6,1.2
				s2.5,0.5,3.5,0.5c2.5,0,4.5-0.6,6.2-1.8c1.7-1.2,2.9-2.9,3.8-5l5-12.4l-29.1-73h13.6l21.4,60.1h0.3l20.6-60.1h12.8L2870,238.8z
				 M2953.6,127.6V229h70.4v-11.4h-56.9v-35.1h52.7v-11.4h-52.7V139h56.5v-11.4H2953.6z M3040.7,127.6V229h12.8v-84.3h0.3l31.7,84.3
				h11.5l31.7-84.3h0.3V229h12.8V127.6h-18.5l-32.1,85.2l-31.9-85.2H3040.7z M3235.3,158.1h13.5c-0.8-5.4-2.4-10.2-4.8-14.3
				c-2.5-4.1-5.5-7.5-9.2-10.3c-3.7-2.7-7.9-4.8-12.6-6.2s-9.8-2.1-15.1-2.1c-7.8,0-14.6,1.4-20.7,4.2c-6,2.8-11,6.6-15.1,11.4
				c-4,4.8-7.1,10.5-9.2,17c-2.1,6.5-3.1,13.4-3.1,20.8s1,14.3,2.9,20.7c1.9,6.4,4.9,12,8.7,16.8s8.8,8.4,14.6,11.1
				c5.9,2.7,12.7,4,20.6,4c13,0,23.2-3.5,30.7-10.6c7.5-7.1,11.9-17,13.2-29.8h-13.5c-0.3,4.2-1.1,8-2.6,11.6s-3.4,6.7-5.9,9.3
				c-2.5,2.6-5.5,4.6-8.9,6.1s-7.4,2.2-11.9,2.2c-6.1,0-11.3-1.1-15.6-3.4c-4.4-2.3-7.9-5.3-10.7-9.2c-2.8-3.8-4.9-8.3-6.2-13.5
				c-1.3-5.2-2-10.6-2-16.4c0-5.3,0.7-10.4,2-15.3c1.3-4.9,3.4-9.3,6.2-13.1c2.8-3.8,6.3-6.9,10.6-9.2s9.5-3.4,15.5-3.4
				c7.1,0,13.2,1.8,18.4,5.4S3233.8,150.9,3235.3,158.1L3235.3,158.1z"/>
		</g>
	</g>
</g>
</svg>
