<svg width="20px" height="20px" viewBox="0 0 20 20" version="1.1" xmlns="http://www.w3.org/2000/svg" xmlns:xlink="http://www.w3.org/1999/xlink" xmlns:sketch="http://www.bohemiancoding.com/sketch/ns">
    <g id="Page-1" stroke="none" stroke-width="1" fill="none" fill-rule="evenodd" sketch:type="MSPage">
        <g id="blog-post---og-colors-01" sketch:type="MSArtboardGroup" transform="translate(-1297.000000, -5519.000000)" fill="#B8B8B8">
            <path d="M1299,5519 L1315,5519 C1316.10457,5519 1317,5519.89543 1317,5521 L1317,5537 C1317,5538.10457 1316.10457,5539 1315,5539 L1309.85,5539 C1309.5,5538.92 1309.5,5538.24 1309.5,5538 L1309.5,5535.26 C1309.5,5534.33 1309.17,5533.72 1308.81,5533.41 C1311.04,5533.16 1313.38,5532.32 1313.38,5528.5 C1313.38,5527.39 1313,5526.5 1312.35,5525.79 C1312.45,5525.54 1312.8,5524.5 1312.25,5523.15 C1312.25,5523.15 1311.41,5522.88 1309.5,5524.17 C1308.71,5523.95 1307.85,5523.84 1307,5523.84 C1306.15,5523.84 1305.29,5523.95 1304.5,5524.17 C1302.59,5522.88 1301.75,5523.15 1301.75,5523.15 C1301.2,5524.5 1301.55,5525.54 1301.65,5525.79 C1301,5526.5 1300.62,5527.39 1300.62,5528.5 C1300.62,5532.31 1302.95,5533.17 1305.17,5533.42 C1304.89,5533.67 1304.63,5534.11 1304.54,5534.76 C1303.97,5535 1302.5,5535.45 1301.63,5533.93 C1301.63,5533.93 1301.1,5532.97 1300.1,5532.9 C1300.1,5532.9 1299.12,5532.88 1300,5533.5 C1300,5533.5 1300.68,5533.81 1301.14,5534.97 C1301.14,5534.97 1301.73,5536.91 1304.5,5536.31 L1304.5,5538 C1304.5,5538.24 1304.5,5538.92 1304.14,5539 L1299,5539 C1297.89543,5539 1297,5538.10457 1297,5537 L1297,5521 C1297,5519.89543 1297.89543,5519 1299,5519 L1299,5519 Z" id="Shape" sketch:type="MSShapeGroup"></path>
        </g>
    </g>
</svg>