<svg width="20px" height="20px" viewBox="0 0 20 20" version="1.1" xmlns="http://www.w3.org/2000/svg" xmlns:xlink="http://www.w3.org/1999/xlink" xmlns:sketch="http://www.bohemiancoding.com/sketch/ns">
    <g id="Page-1" stroke="none" stroke-width="1" fill="none" fill-rule="evenodd" sketch:type="MSPage">
        <g id="blog-post---og-colors-01" sketch:type="MSArtboardGroup" transform="translate(-1266.000000, -5519.000000)" fill="#B8B8B8">
            <path d="M1283,5536 L1280,5536 L1280,5530.7 C1280,5529.87157 1279.32843,5529.2 1278.5,5529.2 C1277.67157,5529.2 1277,5529.87157 1277,5530.7 L1277,5536 L1274,5536 L1274,5527 L1277,5527 L1277,5528.2 C1277.5,5527.36 1278.59,5526.8 1279.5,5526.8 C1281.433,5526.8 1283,5528.367 1283,5530.3 L1283,5536 Z M1270.5,5525.31 C1269.5,5525.31 1268.69,5524.5 1268.69,5523.5 C1268.69,5522.50036 1269.50036,5521.69 1270.5,5521.69 C1271.5,5521.69 1272.31,5522.5 1272.31,5523.5 C1272.31,5524.49964 1271.49964,5525.31 1270.5,5525.31 L1270.5,5525.31 Z M1272,5536 L1269,5536 L1269,5527 L1272,5527 L1272,5536 Z M1284,5519 L1268,5519 C1266.89,5519 1266,5519.89 1266,5521 L1266,5537 C1266,5538.10457 1266.89543,5539 1268,5539 L1284,5539 C1285.10457,5539 1286,5538.10457 1286,5537 L1286,5521 C1286,5519.89 1285.1,5519 1284,5519 L1284,5519 Z" id="Shape" sketch:type="MSShapeGroup"></path>
        </g>
    </g>
</svg>