<?xml version="1.0" encoding="utf-8"?>
<!-- Generator: Adobe Illustrator 16.0.0, SVG Export Plug-In . SVG Version: 6.00 Build 0)  -->
<!DOCTYPE svg PUBLIC "-//W3C//DTD SVG 1.1//EN" "http://www.w3.org/Graphics/SVG/1.1/DTD/svg11.dtd">
<svg version="1.1" id="Layer_1" xmlns="http://www.w3.org/2000/svg" xmlns:xlink="http://www.w3.org/1999/xlink" x="0px" y="0px"
	 width="187.5px" height="187.5px" viewBox="31.25 30.25 187.5 187.5" enable-background="new 31.25 30.25 187.5 187.5"
	 xml:space="preserve">
<path d="M52.083,30.25h145.833c11.458,0,20.833,9.375,20.833,20.833v145.833c0,11.459-9.375,20.834-20.833,20.834H52.083
	c-11.458,0-20.833-9.375-20.833-20.834V51.083C31.25,39.625,40.625,30.25,52.083,30.25 M78.125,155.25
	c-8.333,0-15.625,7.291-15.625,15.625c0,8.333,7.292,15.625,15.625,15.625s15.625-7.292,15.625-15.625
	C93.75,162.541,86.458,155.25,78.125,155.25 M62.5,103.166V124c34.375,0,62.5,28.125,62.5,62.5h20.834
	C145.834,140.666,108.333,103.166,62.5,103.166 M62.5,61.5v20.833c57.292,0,104.167,46.875,104.167,104.167H187.5
	C187.5,117.75,131.25,61.5,62.5,61.5z"/>
</svg>
