<?xml version="1.0" encoding="utf-8"?>
<!-- Generator: Adobe Illustrator 19.1.0, SVG Export Plug-In . SVG Version: 6.00 Build 0)  -->
<svg version="1.1" id="Layer_1" xmlns="http://www.w3.org/2000/svg" xmlns:xlink="http://www.w3.org/1999/xlink" x="0px" y="0px"
	 viewBox="-293 385 24 24" style="enable-background:new -293 385 24 24;" xml:space="preserve">
<path d="M-288,388h14c1.1,0,2,0.9,2,2v14c0,1.1-0.9,2-2,2h-14c-1.1,0-2-0.9-2-2v-14C-290,388.9-289.1,388-288,388 M-285.5,400
	c-0.8,0-1.5,0.7-1.5,1.5s0.7,1.5,1.5,1.5s1.5-0.7,1.5-1.5S-284.7,400-285.5,400 M-287,395v2c3.3,0,6,2.7,6,6h2
	C-279,398.6-282.6,395-287,395 M-287,391v2c5.5,0,10,4.5,10,10h2C-275,396.4-280.4,391-287,391z"/>
</svg>
