<svg width="18px" height="18px" viewBox="0 0 18 18" version="1.1" xmlns="http://www.w3.org/2000/svg" xmlns:xlink="http://www.w3.org/1999/xlink" xmlns:sketch="http://www.bohemiancoding.com/sketch/ns">
    <g id="Page-1" stroke="#000000" stroke-width="1" fill="#000000" fill-rule="evenodd" >
        <g id="blog-post---og-colors-01" sketch:type="MSArtboardGroup" transform="translate(-1330.000000, -47.000000)" fill="#000000" opacity="0.5">
            <path d="M1336.5,47.5 C1340.08985,47.5 1343,50.4101491 1343,54 C1343,55.61 1342.41,57.09 1341.44,58.23 L1341.71,58.5 L1342.5,58.5 L1347.5,63.5 L1346,65 L1341,60 L1341,59.21 L1340.73,58.94 C1339.59,59.91 1338.11,60.5 1336.5,60.5 C1332.91015,60.5 1330,57.5898509 1330,54 C1330,50.4101491 1332.91015,47.5 1336.5,47.5 L1336.5,47.5 Z M1336.5,49.5 C1334,49.5 1332,51.5 1332,54 C1332,56.5 1334,58.5 1336.5,58.5 C1339,58.5 1341,56.5 1341,54 C1341,51.5 1339,49.5 1336.5,49.5 L1336.5,49.5 Z" id="Shape" sketch:type="MSShapeGroup"></path>
        </g>
    </g>
</svg>