<svg width="20px" height="20px" viewBox="0 0 20 20" version="1.1" xmlns="http://www.w3.org/2000/svg" xmlns:xlink="http://www.w3.org/1999/xlink" xmlns:sketch="http://www.bohemiancoding.com/sketch/ns">
    <g id="Page-1" stroke="none" stroke-width="1" fill="none" fill-rule="evenodd" sketch:type="MSPage">
        <g id="blog-post---og-colors-01" sketch:type="MSArtboardGroup" transform="translate(-1235.000000, -5519.000000)" fill="#B8B8B8">
            <path d="M1250.71,5526.33 C1250.64,5530.95 1247.69,5534.11 1243.28,5534.31 C1241.46,5534.39 1240.15,5533.81 1239,5533.08 C1240.34,5533.29 1242,5532.76 1242.9,5532 C1241.58,5531.86 1240.81,5531.19 1240.44,5530.12 C1240.82,5530.18 1241.22,5530.16 1241.58,5530.09 C1240.39,5529.69 1239.54,5528.95 1239.5,5527.41 C1239.83,5527.57 1240.18,5527.71 1240.64,5527.74 C1239.75,5527.23 1239.1,5525.38 1239.85,5524.16 C1241.17,5525.61 1242.76,5526.79 1245.37,5526.95 C1244.71,5524.15 1248.42,5522.63 1249.97,5524.5 C1250.63,5524.38 1251.16,5524.14 1251.68,5523.86 C1251.47,5524.5 1251.06,5524.97 1250.56,5525.33 C1251.1,5525.26 1251.59,5525.13 1252,5524.92 C1251.75,5525.45 1251.19,5525.93 1250.71,5526.33 L1250.71,5526.33 Z M1253,5519 L1237,5519 C1235.89543,5519 1235,5519.89543 1235,5521 L1235,5537 C1235,5538.10457 1235.89543,5539 1237,5539 L1253,5539 C1254.10457,5539 1255,5538.10457 1255,5537 L1255,5521 C1255,5519.89 1254.1,5519 1253,5519 L1253,5519 Z" id="Shape" sketch:type="MSShapeGroup"></path>
        </g>
    </g>
</svg>